<?xml version="1.0" encoding="utf-8"?>
<!-- Generator: Adobe Illustrator 26.5.3, SVG Export Plug-In . SVG Version: 6.00 Build 0)  -->
<svg version="1.1" id="Layer_1" xmlns="http://www.w3.org/2000/svg" xmlns:xlink="http://www.w3.org/1999/xlink" x="0px" y="0px"
	 viewBox="0 0 277.1 277.1" style="enable-background:new 0 0 277.1 277.1;" xml:space="preserve">
<style type="text/css">
	.st0{fill:#FFFFFF;}
	.st1{fill:none;}
</style>
<g id="Layer_1_00000000193857040456536360000015918600475729830291_">
</g>
<circle class="st0" cx="138.5" cy="138.6" r="138.6"/>
<g id="Layer_2_00000104696992624245158080000006797762197579228296_">
	<g>
		<path class="st1" d="M138.5,247.2c-4.8,0.2-8.7,4.4-8.6,9.6c0.1,4.6,4.5,8.8,9.1,8.7c5.3,0,9.5-4.5,9.1-9.8
			C147.8,251.1,144,246.9,138.5,247.2z"/>
		<path class="st1" d="M46.7,79.2c0.2-4.7-3.8-9.3-8.9-9.3s-9.2,3.8-9.3,9.1c-0.1,5.4,4.1,9.2,9.1,9.2
			C42.6,88.3,46.7,84.2,46.7,79.2z"/>
		<path class="st1" d="M136.2,134.3c-0.3-0.5-0.4-1-0.3-1.5c0-0.5,0.2-1,0.7-1.5c0.1-0.1,0.3-0.2,0.4-0.3c0,0,0.1,0,0.1-0.1
			c4.7-3.3,8-8.5,9.2-14.2c-2.1-0.2-4.1-0.3-5.9-0.3c-7.4-0.3-14.9-0.2-22.3,0.1c-2.5,0.1-4.9,0.1-7.4,0c-0.2,3.4-2,6.4-5.7,7.4
			c0.9,1.5,1.9,2.8,3.1,4.1c1.9,0.7,2.1,3.4,0.4,4.5c-9.5,6.2-11.6,20.2-7.3,30.1c4.2,9.7,13.8,16.7,23.9,19.6
			c10.7,3,22.4,2,32.8-1.9c8.5-3.2,16.5-8.9,20-17.4c0.6-1.5,1.4-4.2,1.6-5.8c0.3-2.4,0.3-4.9,0-7.2c-0.6-4.5-2.3-9-4.6-13.1
			c-0.2,0.2-0.4,0.4-0.7,0.6c-4.6,4.2-10.6,6.1-16.8,6.3c-8,0.2-15.8-2.3-20.8-8.8c0,0,0,0,0-0.1
			C136.4,134.6,136.3,134.5,136.2,134.3z M143.3,146.5c2.7,2.2,5.1,4.8,7.9,6.9c3.2,2.4,6.8,3.9,10.8,4.5c0.7,0.1,1.2,0.5,1.5,1.1
			c0.5,0.6,0.6,1.5,0.1,2.4c0,0,0,0.1-0.1,0.1c0,0,0,0,0,0.1c0,0.1-0.1,0.1-0.1,0.2l-0.1,0.1c-2.4,3.6-5.7,6.8-9.7,8.8
			c-4.4,2.2-9.4,3-14.3,2.9c-8.1-0.1-16.7-2.4-21.5-9.4c-2.2-3.2-3.1-7-2.5-10.8s3-7.1,6.1-9.3c3.3-2.4,7.6-3.1,11.6-2.5
			C137,142,140.3,144,143.3,146.5z"/>
		<path class="st1" d="M135.4,102.6c2.9-0.2,5.8-0.6,8.8-0.7c-2.1-3.9-5.2-7.2-9.2-9.4c-6-3.3-13.7-3.6-19.9-0.7
			c-3.8,1.8-7,4.5-9.3,7.8c2.5,1.2,5.3,1.8,8,2.2C120.9,102.9,128.1,103.2,135.4,102.6z"/>
		<path class="st1" d="M141.1,151.1c-2.3-2-4.8-3.8-7.7-4.5c-3-0.7-6.4-0.3-9,1.5c-2.2,1.5-3.9,4.1-4.1,6.8c-0.3,2.9,1,5.7,2.9,7.8
			c4.6,5.1,12.4,6.1,19,5.7c3.5-0.2,7.1-1,10.1-2.8c1.8-1,3.4-2.4,4.8-3.9c-2.7-0.8-5.2-2-7.5-3.6
			C146.4,156.1,143.9,153.5,141.1,151.1z"/>
		<path class="st1" d="M240.6,69.9c-5-0.2-9.4,4.1-9.2,9.2c-0.1,4.9,3.9,9.1,8.8,9.1c5.1,0.1,9.4-3.8,9.4-9.1
			C249.6,74.1,246,70,240.6,69.9z"/>
		<g>
			<path d="M132.1,231.3c-0.5-2.4-1.5-4.5-4-5.5c-1.3-0.5-3.4,0.1-3.6,1.6c-0.2,1.3-0.3,2.7-0.4,4.1c0.1,0,0.1,0,0.2,0
				c0,0.4,0,0.8,0,1.1c0,1.3-0.9,1.9-2.1,1.5c-1.3-0.4-2.2-1.3-2.8-2.3c-1.6-2.6-3.2-5.1-4.5-7.8c-2.7-5.4-5.1-11-7.7-16.4
				c-2.8-5.9-5.7-11.7-8.7-17.6c-2.6-5.2-5.2-10.3-7.9-15.5c-1.7-3.3-3.3-6.7-5-10c-3.2-6-6.2-12.1-9.3-18.2
				c-3.1-5.9-6-11.9-9.3-17.8c-3.6-6.4-7.5-12.6-11.4-18.8c-1.9-3.1-4.1-6.1-7.1-8.4c-1.9-1.5-4-2.8-6.6-2.9c-2-0.1-3.7,0.5-5.1,1.9
				c-3.3,3.4-1.5,9.3,2.2,10.9c1.5,0.7,3.2,0.1,3.8-1.5c0.2-0.6,0.1-1.4,0.1-2c0-1.1-0.2-2.2-0.1-3.4c0-1.2,0.9-1.8,2-1.5
				c0.6,0.2,1.3,0.4,1.7,0.9c1.2,1.4,2.5,2.7,3.4,4.3c1.9,3.4,3.5,7,5.1,10.5c3.2,6.6,6.3,13.2,9.5,19.8c4.1,8.2,8.2,16.4,12.4,24.6
				c3.7,7.3,7.3,14.5,11,21.8c3.9,7.7,7.8,15.4,11.9,23c4.2,7.8,8.7,15.4,13.8,22.6c2.2,3,4.6,5.7,8,7.4c2.6,1.3,5.3,1.5,7.9-0.2
				C131.9,236.1,132.6,233.9,132.1,231.3z"/>
			<path d="M226.4,96.1c-3.8,0.2-6.9,4.2-6.5,7.6c0.3,2.1,2.1,3.3,4,2.4c1.1-0.6,2.2-1.2,3.3-1.9c0.7-0.5,1.4-0.7,2.1-0.3
				c0.8,0.5,1.1,1.4,0.9,2.3c-0.3,1.3-0.6,2.7-1.3,3.8c-2,3.4-4.1,6.8-6.2,10.1c-4.5,6.7-9.1,13.3-13.6,20
				c-2.9,4.4-5.8,8.9-8.6,13.3c-4,6.2-8,12.5-12,18.7c-2.7,4.2-5.5,8.5-8.3,12.7c-2.7,4.2-5.5,8.5-8.1,12.8
				c-3.3,5.4-6.6,10.7-9.6,16.2c-2.7,4.9-5.1,10-7.6,15c-1.3,2.8-2.2,5.7-2.4,8.9c0.1,1.1,0.2,2.3,0.4,3.4c0.6,3,3.4,5.4,6,5.5
				c3.7,0.2,6.9-3.1,7.2-6.6c0.2-2.4-1.2-4.2-3.5-3.5c-0.7,0.2-1.4,0.7-2,1.1c-0.7,0.5-1.4,1-2.2,1.4c-1.4,0.7-2.5-0.1-2.6-1.7
				c-0.1-1.9,0.5-3.7,1.5-5.3c3.9-6,8-12,12-17.9c3-4.6,6.1-9.1,9.1-13.7c3.3-5.1,6.6-10.2,9.9-15.4c3.2-4.9,6.4-9.9,9.6-14.8
				c2.7-4.1,5.3-8.3,8-12.5c4.2-6.7,8.5-13.3,12.6-20c4.3-7.1,8.4-14.4,11.9-22c1.4-3,2.6-6.1,3-9.5c0.3-2.7,0-5.3-1.7-7.6
				C230.2,96.9,228.4,96,226.4,96.1z"/>
			<path d="M68.4,85.3c2-1.1,3-3.7,0.5-5.3c-1-0.7-2.1-1.3-3.3-1.8c-0.6-0.4-1.2-0.8-1.2-1.7c0-0.8,0.6-1.4,1.4-1.8
				c1.6-0.8,3.4-1,5.2-1c2.5,0,5,0.1,7.5,0.3c3.8,0.3,7.6,0.7,11.4,1c2.4,0.2,4.8,0.5,7.3,0.6c2.9,0.2,5.7,0.3,8.6,0.4
				c4.2,0.2,8.3,0.5,12.5,0.8c3,0.2,6,0.3,9.1,0.4c4.1,0.2,8.2,0.4,12.2,0.7c3.4,0.2,6.8,0.5,10.2,0.6c4.6,0.2,9.3,0.4,13.9,0.7
				c4.2,0.2,8.3,0.5,12.5,0.6c5.2,0.1,10.4,0.1,15.5,0.1c3.6,0,7.3-0.1,10.9-0.3c4-0.2,8-0.4,11.8-1.6c2.4-0.7,4.5-1.8,6.3-3.5
				c2.7-2.7,2.8-6.9,0.2-9.6c-2-2-6-2.5-8.3-1.1c-1,0.6-1.8,1.5-1.8,2.9c0,1.3,0.9,1.9,1.8,2.4c0.7,0.4,1.5,0.6,2.2,1
				s1.4,0.8,1.8,1.4c0.6,1.1,0,2.3-1.4,2.8c-1.6,0.5-3.3,1-5,1c-4-0.1-8-0.4-12-0.7c-5.6-0.4-11.2-0.9-16.8-1.3
				c-3-0.2-6.1-0.3-9.1-0.5c-2.9-0.2-5.8-0.4-8.7-0.5c-3-0.2-6.1-0.3-9.1-0.4c-3.1-0.2-6.2-0.3-9.3-0.5c-1.5-0.1-3-0.2-4.5-0.3
				c-2.2-0.1-4.4-0.3-6.6-0.4c-1.6-0.1-3.2-0.1-4.8-0.1c-3-0.2-6-0.4-9-0.5c-3.6-0.2-7.2-0.3-10.8-0.5c-4.1-0.2-8.2-0.4-12.3-0.4
				c-3.5,0-7.1,0.1-10.6,0.1c-3.2,0.1-6.4,0.2-10.1,0.3c-2.4,0.3-5.2,0.6-8,1.2c-3.1,0.6-6,1.8-8.3,4.2c-2.2,2.4-2.8,6.6-0.2,9.2
				C61.9,85.8,65.8,86.8,68.4,85.3z"/>
			<path d="M240.6,66.7c-6.3-0.2-12.3,4.9-12.3,12.2c-0.1,6.7,5.1,12.1,11.5,12.4c7.6,0.3,13-5.3,13-12.4
				C252.7,72.4,248.1,67,240.6,66.7z M240.2,88.2c-4.8-0.1-8.8-4.2-8.8-9.1c-0.2-5.1,4.2-9.4,9.2-9.2c5.4,0.2,9,4.3,9,9.2
				C249.5,84.5,245.3,88.3,240.2,88.2z"/>
			<path d="M139.3,244c-6.9-0.1-12.2,5.1-12.5,11.8c-0.3,7.4,5.4,12.8,11.9,12.9c7,0.1,12.5-5.3,12.6-12.2
				C151.3,249.4,145.8,244.1,139.3,244z M139,265.5c-4.6,0.1-9-4.1-9.1-8.7c-0.1-5.2,3.8-9.4,8.6-9.6c5.5-0.3,9.3,3.9,9.6,8.5
				C148.5,261,144.3,265.5,139,265.5z"/>
			<path d="M49.8,79c0-7.2-5.9-12.6-12.6-12.3c-7.1,0.4-11.8,5.6-11.8,12.5c0,6.9,5.4,12.5,12.9,12.2C44.7,91.1,49.8,85.8,49.8,79z
				 M28.5,79c0.1-5.3,4.2-9.2,9.3-9.1c5.1,0,9.2,4.6,8.9,9.3c0,5-4.1,9.1-9.1,9C32.6,88.2,28.4,84.4,28.5,79z"/>
			<path d="M94.9,159.4c2.6,11.7,12.3,20.9,23,25.4c11.7,5,25.1,5,37.2,1.5c10.1-3,20-8.8,25.5-18.1c6-10.2,4.5-22.3-0.6-32.5
				c-0.8-1.6-1.7-3.2-2.6-4.7c-1-1.6-3.3-1.6-4.3,0c-0.1,0.1-0.2,0.3-0.3,0.4c-0.1,0.2-0.3,0.4-0.3,0.4c-0.4,0.4-0.7,0.9-1.2,1.3
				c-0.3,0.3-0.6,0.6-0.9,0.9c-0.2,0.1-0.3,0.3-0.5,0.4c-0.1,0.1-0.2,0.1-0.2,0.2c0,0-0.1,0-0.1,0.1c-0.9,0.6-1.9,1.2-2.9,1.7
				c-2.1,1.1-5,1.8-7.6,2.1c-3.5,0.3-7,0-10.3-1c-2.6-0.8-4.9-2.3-6.8-4.1c4.7-4.1,8-9.7,9.2-15.7c1.2,0.3,2.3,0.8,3.3,1.4
				c0.4,0.2,0.9-0.1,0.8-0.6c-0.9-3-1.9-6.2-3.6-8.5c2.4-1.7,4.9-2.7,7.3-3.2c0.4-0.1,0.6-0.6,0.2-0.9c-2.8-2.2-6.1-3.3-9.5-3.7
				c-2.1-5.1-5.6-9.6-10.3-12.7c-7.2-4.8-16.7-5.9-24.8-2.8c-6,2.3-10.9,6.5-14.1,11.9l0,0c-2.1,1.8-4.1,4.2-4.4,7.2
				c0,0.1,0,0.2,0,0.3c-3.5,0.2-7.2,0.6-9.6,0.9c-1.7,0.2-2.8,1.8-2.4,3.4c1,4.1,4.3,11,14.9,13.5c0.1,0,0.2,0,0.3,0.1
				c0.6,1.2,1.2,2.4,1.9,3.4c0.6,0.9,1.3,1.9,2.1,2.9C95.2,137.3,92.6,149.1,94.9,159.4z M115,91.8c6.3-2.9,13.9-2.6,19.9,0.7
				c4,2.2,7.2,5.5,9.2,9.4c-2.9,0.1-5.8,0.5-8.8,0.7c-7.2,0.6-14.5,0.3-21.7-0.8c-2.7-0.4-5.5-1-8-2.2C108,96.2,111.2,93.5,115,91.8
				z M116.7,109.8c0,1.7-1.3,3-3,3s-3-1.3-3-3c0-1.7,1.3-3,3-3S116.7,108.1,116.7,109.8z M97.3,118.1c-4.1-1.6-6.4-4.1-7.6-6.6
				c2.1-0.2,4.6-0.4,7-0.6c0.2,0,0.4,0,0.6,0c1,0,2-0.1,2.9-0.1c0.6,0,1.1,0,1.5,0c0.6,0,1,0.1,1.3,0.1c1.5,0.2,2.7,2.6,2.6,5
				c0,0,0,0,0,0.1c-0.2,2.7-1.8,3.1-2.9,3.2c-0.2,0-0.3,0-0.5,0c-0.7,0-1.5-0.1-2.3-0.3C99.1,118.7,98.2,118.4,97.3,118.1z
				 M108.5,132.5c1.7-1.1,1.5-3.7-0.4-4.5c-1.2-1.3-2.3-2.6-3.1-4.1c3.7-1,5.5-4.1,5.7-7.4c2.5,0.1,4.9,0.1,7.4,0
				c7.4-0.3,14.9-0.3,22.3-0.1c1.8,0.1,3.8,0.1,5.9,0.3c-1.2,5.6-4.4,10.8-9.2,14.2c0,0-0.1,0-0.1,0.1c-0.2,0.1-0.3,0.2-0.4,0.3
				c-0.4,0.4-0.7,1-0.7,1.5c-0.1,0.5,0,1,0.3,1.5c0.1,0.2,0.2,0.3,0.3,0.4c0,0,0,0,0,0.1c5.1,6.4,12.8,8.9,20.8,8.8
				c6.1-0.1,12.2-2.1,16.8-6.3c0.2-0.2,0.4-0.4,0.7-0.6c2.2,4.1,4,8.5,4.6,13.1c0.3,2.4,0.3,4.9,0,7.2c-0.2,1.6-1,4.3-1.6,5.8
				c-3.6,8.5-11.6,14.2-20,17.4c-10.3,3.9-22.1,4.9-32.8,1.9c-10.1-2.9-19.7-9.8-23.9-19.6S98.9,138.6,108.5,132.5z"/>
			<path d="M139.3,173.5c4.9,0.1,9.9-0.7,14.3-2.9c3.9-2,7.2-5.2,9.7-8.8l0.1-0.1c0-0.1,0.1-0.1,0.1-0.2c0,0,0,0,0-0.1
				c0,0,0-0.1,0.1-0.1c0.5-0.9,0.4-1.7-0.1-2.4c-0.3-0.6-0.8-1-1.5-1.1c-4-0.5-7.6-2.1-10.8-4.5c-2.8-2.1-5.2-4.7-7.9-6.9
				c-3-2.4-6.4-4.4-10.3-5c-4-0.6-8.2,0.2-11.6,2.5c-3.1,2.2-5.5,5.6-6.1,9.3c-0.6,3.8,0.3,7.6,2.5,10.8
				C122.6,171.1,131.3,173.4,139.3,173.5z M120.2,154.9c0.2-2.7,1.9-5.3,4.1-6.8c2.6-1.8,6-2.3,9-1.5c3,0.7,5.5,2.5,7.7,4.5
				c2.8,2.4,5.4,5,8.4,7.1c2.3,1.6,4.8,2.8,7.5,3.6c-1.4,1.5-3,2.8-4.8,3.9c-3,1.8-6.6,2.5-10.1,2.8c-6.6,0.4-14.4-0.6-19-5.7
				C121.2,160.6,119.9,157.8,120.2,154.9z"/>
		</g>
	</g>
</g>
</svg>
