<?xml version="1.0" encoding="utf-8"?>
<!-- Generator: Adobe Illustrator 22.0.1, SVG Export Plug-In . SVG Version: 6.00 Build 0)  -->
<svg version="1.1" id="Lag_1" xmlns="http://www.w3.org/2000/svg" xmlns:xlink="http://www.w3.org/1999/xlink" x="0px" y="0px"
	 viewBox="0 0 78.7 101.7" style="enable-background:new 0 0 78.7 101.7;" xml:space="preserve">
<g>
	<g>
		<path d="M35.1,54.3c0-0.4,0-0.8,0.1-1.1c0.1-0.4,0.6-0.6,1-0.4c0.7,0.3,1,0.9,1.1,1.5c0.1,0.7-0.1,1.3-0.7,1.7
			c-0.7,0.5-1.5,0.4-2.2,0c-0.9-0.5-1.6-1.2-2.2-2c-1.4-2-2.7-4.1-3.9-6.3c-1.1-2.1-2.2-4.2-3.3-6.4c-1-2-2.1-4-3.1-6
			c-1.2-2.3-2.3-4.5-3.5-6.8c-0.9-1.8-1.8-3.7-2.7-5.5c-0.5-1-0.9-2-1.4-2.9c-0.2-0.4-0.6-0.8-0.9-1.2c-0.1-0.1-0.3-0.2-0.5-0.2
			c-0.3-0.1-0.5,0.1-0.6,0.4c0,0.3,0,0.6,0,0.9c0,0.2,0,0.4,0,0.6c-0.1,0.4-0.6,0.6-1.1,0.4c-1-0.5-1.6-2.1-0.6-3
			c0.4-0.4,0.9-0.6,1.4-0.5c0.7,0,1.3,0.4,1.8,0.8c0.8,0.6,1.4,1.5,2,2.3c1.1,1.7,2.2,3.5,3.2,5.2c0.9,1.6,1.7,3.3,2.6,4.9
			c0.9,1.7,1.7,3.4,2.6,5c0.5,0.9,0.9,1.9,1.4,2.8c0.7,1.4,1.5,2.9,2.2,4.3c0.8,1.6,1.6,3.2,2.4,4.9c0.7,1.5,1.4,3,2.2,4.6
			c0.4,0.7,0.8,1.5,1.3,2.2c0.2,0.3,0.4,0.5,0.8,0.6c0.3,0.1,0.6-0.1,0.6-0.4C35.2,54.5,35.2,54.4,35.1,54.3
			C35.2,54.3,35.2,54.3,35.1,54.3z"/>
		<path d="M43.1,56c0.1-0.9,0.3-1.7,0.7-2.5c0.7-1.4,1.4-2.8,2.1-4.2c0.8-1.5,1.8-3,2.7-4.5c0.7-1.2,1.5-2.4,2.3-3.5
			c0.8-1.2,1.5-2.3,2.3-3.5c1.1-1.7,2.2-3.5,3.4-5.2c0.8-1.2,1.6-2.5,2.4-3.7c1.3-1.9,2.5-3.7,3.8-5.6c0.6-0.9,1.2-1.8,1.7-2.8
			c0.2-0.3,0.3-0.7,0.4-1.1c0.1-0.2,0-0.5-0.3-0.6c-0.2-0.1-0.4,0-0.6,0.1c-0.3,0.2-0.6,0.4-0.9,0.5c-0.5,0.3-1-0.1-1.1-0.7
			c-0.1-1,0.7-2.1,1.8-2.1c0.6,0,1.1,0.2,1.4,0.7c0.5,0.6,0.6,1.4,0.5,2.1c-0.1,0.9-0.4,1.8-0.8,2.6c-1,2.1-2.1,4.1-3.3,6.1
			c-1.1,1.9-2.3,3.7-3.5,5.5c-0.7,1.2-1.5,2.3-2.2,3.5c-0.9,1.4-1.8,2.7-2.7,4.1c-0.9,1.4-1.8,2.8-2.8,4.3c-0.8,1.3-1.7,2.5-2.5,3.8
			c-1.1,1.7-2.2,3.3-3.3,5c-0.3,0.4-0.4,0.9-0.4,1.5c0,0.4,0.3,0.7,0.7,0.5c0.2-0.1,0.4-0.3,0.6-0.4c0.2-0.1,0.4-0.3,0.6-0.3
			c0.7-0.2,1,0.3,1,1c-0.1,1-1,1.9-2,1.8c-0.7,0-1.5-0.7-1.7-1.5C43.1,56.6,43.1,56.3,43.1,56z"/>
		<path d="M21.9,9.4c1,0,1.9-0.1,2.8-0.1c1,0,2-0.1,3,0c1.2,0,2.3,0.1,3.5,0.1c1,0,2,0.1,3,0.1c0.8,0,1.7,0.1,2.5,0.2
			c0.4,0,0.9,0,1.3,0c0.6,0,1.2,0.1,1.8,0.1c0.4,0,0.8,0,1.3,0.1c0.9,0,1.7,0.1,2.6,0.1c0.9,0,1.7,0.1,2.6,0.1
			c0.8,0,1.6,0.1,2.4,0.2c0.9,0,1.7,0.1,2.6,0.1c1.6,0.1,3.1,0.2,4.7,0.4c1.1,0.1,2.2,0.2,3.4,0.2c0.5,0,0.9-0.1,1.4-0.3
			c0.4-0.1,0.6-0.5,0.4-0.8c-0.1-0.2-0.3-0.3-0.5-0.4c-0.2-0.1-0.4-0.2-0.6-0.3c-0.3-0.1-0.5-0.3-0.5-0.7c0-0.4,0.2-0.6,0.5-0.8
			c0.6-0.4,1.8-0.2,2.3,0.3c0.7,0.7,0.7,1.9-0.1,2.6c-0.5,0.5-1.1,0.8-1.7,1c-1.1,0.3-2.2,0.4-3.3,0.5c-1,0-2,0.1-3.1,0.1
			c-1.4,0-2.9,0-4.3,0c-1.2,0-2.3-0.1-3.5-0.2c-1.3-0.1-2.6-0.1-3.9-0.2c-0.9,0-1.9-0.1-2.8-0.2c-1.1-0.1-2.3-0.1-3.4-0.2
			c-0.8,0-1.7-0.1-2.5-0.1c-1.2-0.1-2.3-0.1-3.5-0.2c-0.8,0-1.6-0.1-2.4-0.1c-0.7,0-1.4-0.1-2-0.2c-1.1-0.1-2.1-0.2-3.2-0.3
			c-0.7-0.1-1.4-0.1-2.1-0.1c-0.5,0-1,0.1-1.4,0.3c-0.2,0.1-0.4,0.3-0.4,0.5c0,0.2,0.2,0.4,0.4,0.5c0.3,0.2,0.6,0.3,0.9,0.5
			c0.7,0.5,0.4,1.2-0.2,1.5c-0.7,0.4-1.8,0.1-2.3-0.4c-0.7-0.7-0.6-1.9,0.1-2.5c0.6-0.7,1.4-1,2.3-1.2C20.4,9.5,21.2,9.5,21.9,9.4z"
			/>
		<path d="M39.9,42c-8.4,0-14.4-6.2-14.4-13.7c-0.1-7.9,6.3-14.3,14.4-14c7.4,0.2,12.8,6,13.3,12.6c0.3,4.2-0.9,7.9-3.9,10.9
			C46.5,40.6,43.2,42,39.9,42z M40.3,41.2c2.8,0,6-1.4,8.6-4.2c2.6-2.8,3.7-6.2,3.4-10c-0.5-6.1-5.7-11.9-13.2-11.8
			c-3.7,0.1-6.8,1.5-9.2,4.2c-2.6,2.8-3.7,6.1-3.4,9.9C26.8,35.4,32.1,41.2,40.3,41.2z"/>
		<path d="M64.3,12c0-2,1.7-3.4,3.4-3.4c2.1,0.1,3.4,1.6,3.4,3.4c0,2-1.5,3.5-3.6,3.4C65.7,15.4,64.2,13.9,64.3,12z M65.2,12.1
			c0,1.4,1.1,2.5,2.5,2.5c1.4,0,2.6-1,2.6-2.5c0-1.4-1-2.5-2.5-2.6C66.3,9.5,65.1,10.6,65.2,12.1z"/>
		<path d="M42.7,61.2c0,1.9-1.6,3.4-3.5,3.4c-1.8,0-3.4-1.5-3.3-3.6c0.1-1.9,1.6-3.3,3.5-3.3C41.2,57.8,42.8,59.3,42.7,61.2z
			 M39.3,63.7c1.5,0,2.7-1.2,2.6-2.7c-0.1-1.3-1.2-2.4-2.7-2.4c-1.4,0.1-2.4,1.2-2.4,2.7C36.8,62.6,38,63.8,39.3,63.7z"/>
		<path d="M14.4,12c0,1.9-1.4,3.3-3.2,3.4c-2.1,0.1-3.6-1.5-3.6-3.4c0-1.9,1.3-3.4,3.3-3.4C12.8,8.6,14.4,10,14.4,12z M13.5,12.1
			c0.1-1.3-1.1-2.6-2.5-2.6c-1.4,0-2.6,1.1-2.6,2.5c0,1.5,1.1,2.5,2.5,2.6C12.4,14.6,13.5,13.5,13.5,12.1z"/>
	</g>
	<g>
		<path d="M66.6,76.1c-0.1,3.1-0.1,6.3-0.2,9.4c0,2.6,0,5.3,0,7.9c0,0.5-0.4,0.8-0.8,0.5c-0.1-0.1-0.2-0.3-0.3-0.5
			c0-0.6,0-1.1,0-1.7c0.2-5.8,0.3-11.7,0.3-17.5c0-0.8,0-1.6,0-2.4c0-0.4,0.1-0.6,0.4-0.6c0.3,0,0.5,0.1,0.6,0.5
			c0.3,1.5,0.6,3,0.9,4.5c0.3,1.5,0.7,3,1,4.5c0.5,2.4,1,4.9,1.5,7.3c0.1,0.5,0.2,0.9,0.3,1.3c0-0.1,0-0.2,0-0.4
			c-0.1-4.9-0.2-9.9-0.3-14.8c0-0.8,0-1.5,0-2.3c0-0.5,0.1-0.7,0.5-0.7c0.3,0,0.5,0.2,0.5,0.7c0,2.2,0,4.3,0,6.5
			c0,4.9,0.1,9.8,0.1,14.7c0,0.1,0,0.3,0,0.4c0,0.2-0.1,0.4-0.3,0.4c-0.3,0-0.4-0.1-0.4-0.4c-0.1-0.6-0.3-1.3-0.4-1.9
			c-0.5-2.1-1-4.1-1.4-6.2c-0.5-2.5-1-5-1.5-7.5c-0.1-0.6-0.3-1.2-0.4-1.9C66.6,76.1,66.6,76.1,66.6,76.1z"/>
		<path d="M23.6,81.4c0.5-0.9,0.9-1.9,1.4-2.8c1.1-2.3,2.1-4.5,3.4-6.7c0.1-0.2,0.2-0.3,0.3-0.4c0.1-0.1,0.3-0.1,0.4-0.1
			c0.1,0.1,0.2,0.3,0.2,0.4c-0.1,0.3-0.2,0.6-0.3,0.9c-1.2,2.3-2.3,4.6-3.5,6.9c-0.2,0.4-0.5,0.8-0.6,1.2c-0.1,0.4,0.3,0.8,0.4,1.2
			c0.6,1.6,1.1,3.3,1.7,4.9c0.7,1.8,1.4,3.5,2,5.3c0.1,0.4,0.3,0.8,0.4,1.2c0.1,0.3,0,0.7-0.3,0.8c-0.3,0.1-0.6-0.1-0.7-0.5
			c-0.5-1.4-0.9-2.8-1.4-4.1c-0.8-2.1-1.7-4.2-2.5-6.3c-0.1-0.3-0.2-0.6-0.4-1c-0.3,0.6-0.7,1.2-0.6,1.8c0.2,1.7,0.1,3.4,0,5.1
			c0,1.4,0,2.8,0,4.2c0,0.2-0.1,0.4-0.2,0.5c-0.1,0.1-0.4,0.1-0.5,0c-0.1-0.1-0.2-0.3-0.2-0.5c0-1.8,0-3.5,0-5.3
			c0-1.4,0.1-2.8,0-4.2c0-4.1,0-8.1-0.1-12.2c0-0.4,0.2-0.6,0.5-0.6c0.3,0,0.5,0.2,0.5,0.6c0,2.5-0.1,4.9-0.1,7.4
			C23.5,79.8,23.5,80.6,23.6,81.4C23.5,81.3,23.6,81.4,23.6,81.4z"/>
		<path d="M46.7,82.4c1,0.3,1.7,0.9,2.1,1.8c0.3,0.7,0.6,1.5,0.7,2.3c0.3,1.6,0.3,3.2-0.2,4.8c-0.5,1.5-1.5,2.5-3.1,2.8
			c-0.9,0.2-1.8,0.1-2.7-0.2c-0.2-0.1-0.3-0.2-0.3-0.5c0.1-1.6,0.2-3.1,0.2-4.7c0-3,0-6,0-8.9c0-2.5-0.1-5-0.2-7.5
			c0-0.8,0-0.8,0.8-1c1.1-0.3,2.2-0.2,3.2,0.4c0.8,0.5,1.4,1.2,1.8,2.1c0.5,1.3,0.6,2.6,0.6,4c0,0.9-0.1,1.7-0.4,2.6
			c-0.4,0.9-1.1,1.6-2,2C46.9,82.3,46.9,82.3,46.7,82.4z M44.1,82.8c0,0.1,0,0.2,0,0.2c0,1.6,0.1,3.3,0.1,4.9c0,1.6,0,3.3,0,4.9
			c0,0.2,0,0.3,0.2,0.3c0.7,0.1,1.3,0.1,1.9,0c1.3-0.3,1.9-1.3,2.3-2.5c0.4-1.5,0.3-3.1,0.1-4.6c-0.1-0.8-0.4-1.5-1-2.1
			C46.8,82.8,45.5,82.8,44.1,82.8z M44,71.9c0,3.5,0.1,6.8,0.1,10.2c0.5-0.1,1.1-0.1,1.6-0.2c1.5-0.2,2.6-1.3,2.9-2.8
			c0.1-0.7,0.1-1.4,0-2.1c-0.1-1.2-0.3-2.3-0.8-3.4c-0.4-1-1.1-1.7-2.3-1.8C45.1,71.8,44.6,71.9,44,71.9z"/>
		<path d="M54.3,82.4c1.5,0.5,2.2,1.7,2.6,3.2c0.4,1.8,0.5,3.7,0,5.5c-0.4,1.6-1.5,2.7-3.2,3c-0.9,0.2-1.9,0.1-2.7-0.2
			c-0.2-0.1-0.3-0.2-0.3-0.5c0.2-3.7,0.3-7.5,0.2-11.2c0-2.7-0.1-5.4-0.2-8.1c0-0.8,0-1.5,0-2.3c0-0.2,0.1-0.4,0.3-0.5
			c1.2-0.4,2.4-0.5,3.6,0.2c0.9,0.5,1.4,1.2,1.8,2.1c0.5,1.3,0.6,2.6,0.6,4c0,0.9-0.1,1.8-0.5,2.6c-0.4,0.9-1.1,1.6-2,2
			C54.4,82.3,54.4,82.3,54.3,82.4C54.3,82.3,54.3,82.4,54.3,82.4z M51.6,82.8c0,0.1,0,0.2,0,0.3c0,1.6,0.1,3.2,0.1,4.8
			c0,1.7,0,3.3,0,5c0,0.2,0,0.3,0.2,0.3c0.7,0.1,1.3,0.1,1.9,0c1.3-0.3,1.9-1.3,2.3-2.5c0.4-1.5,0.3-3.1,0.1-4.6
			c-0.1-0.8-0.4-1.5-1-2.1C54.3,82.8,53,82.8,51.6,82.8z M51.5,71.9c0,3.5,0.1,6.8,0.1,10.2c0.5-0.1,1.1-0.1,1.6-0.2
			c1.5-0.2,2.6-1.3,2.9-2.8c0.1-0.7,0.1-1.4,0-2.1c-0.1-1.2-0.3-2.3-0.8-3.4c-0.4-1-1.1-1.7-2.3-1.8C52.6,71.8,52,71.9,51.5,71.9z"
			/>
		<path d="M42.1,79.8c0,2.2,0,4.3,0,6.5c0,1.7-0.2,3.5-0.6,5.1c-0.2,0.6-0.4,1.2-0.8,1.7c-1.1,1.2-3,1-3.8-0.4
			c-0.5-0.8-0.7-1.8-0.8-2.7c-0.5-4.3-0.4-8.6-0.5-12.9c0-1.7,0-3.4-0.1-5.2c0-0.1,0-0.3,0-0.4c0-0.3,0.3-0.5,0.5-0.5
			c0.3,0,0.5,0.2,0.5,0.5c0,0.4,0,0.8,0,1.2c-0.1,4.2-0.1,8.5-0.2,12.7c0,1.6,0.1,3.3,0.4,4.9c0.1,0.5,0.3,1.1,0.5,1.6
			c0.3,0.6,0.7,0.9,1.4,0.9c0.7,0,1.2-0.3,1.6-0.9c0.4-0.9,0.6-1.8,0.6-2.7c0.1-3.1,0.2-6.2,0.2-9.3c0-2.6-0.1-5.1-0.2-7.7
			c0-0.2,0-0.4,0-0.7c0-0.3,0.2-0.5,0.5-0.5c0.3,0,0.5,0.2,0.5,0.5c0,0.4,0,0.8,0,1.2C42.1,75.2,42.1,77.5,42.1,79.8z"/>
		<path d="M59,72.1c0,0.3,0,0.6,0,0.9c0,2.2,0,4.3,0,6.5c0,0.8,0,1.5,0,2.3c0,0.2,0.1,0.2,0.2,0.2c0.7,0,1.3,0,2,0
			c0.4,0,0.8,0,1.1-0.1c0.3,0,0.4,0.1,0.4,0.4c0,0.3-0.1,0.5-0.4,0.5c-0.6,0-1.1,0-1.7,0.1c-0.6,0-1.1,0.1-1.7,0.2
			c-0.1,0.8-0.1,1.6-0.2,2.4c0,2.4,0,4.9-0.1,7.3c0,0.3,0.1,0.3,0.4,0.3c1.4,0,2.8-0.1,4.2-0.1c0.1,0,0.1,0,0.2,0
			c0.3,0,0.4,0.2,0.4,0.4c0,0.2-0.2,0.4-0.4,0.4c-0.2,0-0.5,0-0.7,0c-1.4,0-2.8,0-4.2,0c-0.6,0-0.6-0.1-0.6-0.6
			c0-2.4,0.1-4.8,0.1-7.1c0-1.4-0.1-2.8-0.1-4.2c0-2.7,0.1-5.5,0.1-8.2c0-0.6,0-1.2,0.1-1.8c0-0.3,0.2-0.4,0.4-0.4
			c1.2-0.1,2.4-0.2,3.7-0.4c0.3,0,0.6-0.1,1-0.1c0.4,0,0.7,0.2,0.7,0.5c0,0.3-0.2,0.5-0.6,0.5c-1.2,0-2.5,0.1-3.7,0.1
			C59.5,72.1,59.3,72.1,59,72.1z"/>
		<path d="M8.4,71.8c0,1.7-0.1,3.4,0,5.1c0.1,1.7,0.2,3.4,0,5.1c0.4,0,0.7,0,1,0c0.7-0.1,1.4-0.1,2.1-0.2c0.3,0,0.6,0.2,0.6,0.5
			c0,0.3-0.2,0.5-0.6,0.5c-0.9,0-1.8,0-2.7,0.1c-0.5,0-0.5,0-0.5,0.5c0.1,2.5,0.1,5.1,0.2,7.6c0,0.8,0,1.5,0,2.3
			c0,0.4-0.1,0.6-0.5,0.6c-0.3,0-0.5-0.2-0.5-0.6c0-3.2,0-6.4,0-9.6c0-1.2-0.1-2.5-0.2-3.7c0-0.8,0-1.5,0-2.3c0-1-0.1-2-0.1-3
			c0-1.1,0-2.2,0-3.2C7.5,71.1,7.6,71,8,71c1.7,0.1,3.4,0.1,5.1,0.2c0.3,0,0.5,0.2,0.5,0.4c0,0.3-0.2,0.5-0.5,0.5c-1,0-2-0.1-3-0.1
			C9.4,71.9,8.9,71.9,8.4,71.8z"/>
		<path d="M31.3,93.1c0.9,0,1.8-0.1,2.8-0.1c0.3,0,0.7,0,1,0c0.4,0,0.6,0.1,0.6,0.4c0,0.3-0.2,0.4-0.5,0.4c-1,0-2.1,0-3.1,0.1
			c-0.3,0-0.6,0-0.9,0c-0.4,0-0.5-0.1-0.5-0.5c0-1,0.1-2.1,0.1-3.1c0-1.4-0.1-2.8-0.1-4.2c0-0.7,0.1-1.4,0.1-2.1c0-0.5,0-1.1,0-1.6
			c0-1.6,0.1-3.2,0.1-4.8c0-1.2,0-2.4-0.1-3.6c0-0.7-0.1-1.5-0.1-2.2c0-0.3,0.2-0.6,0.5-0.6c0.3,0,0.6,0.2,0.6,0.6
			c-0.1,1.3-0.2,2.7-0.2,4c0,1.8,0,3.7,0,5.5c0,0.7,0,1.3-0.1,2c0,0.6,0.1,1.2,0,1.8c0,1.2-0.1,2.3-0.1,3.5
			C31.2,90,31.3,91.5,31.3,93.1z"/>
		<path d="M16.1,82.8c1.4,0,2.8,0,4.3,0c0.2,0,0.4,0,0.6-0.1c0.4,0,0.7,0.2,0.6,0.6c0,0.3-0.3,0.5-0.6,0.5c-2-0.2-4.1-0.1-6.1,0
			c-0.1,0-0.3,0-0.4,0c-0.4,0-0.6-0.2-0.6-0.5c0-0.3,0.2-0.5,0.6-0.6C15,82.7,15.6,82.8,16.1,82.8C16.1,82.8,16.1,82.8,16.1,82.8z"
			/>
	</g>
</g>
</svg>
