<?xml version="1.0" encoding="utf-8"?>
<!-- Generator: Adobe Illustrator 26.5.3, SVG Export Plug-In . SVG Version: 6.00 Build 0)  -->
<svg version="1.1" id="Layer_1" xmlns="http://www.w3.org/2000/svg" xmlns:xlink="http://www.w3.org/1999/xlink" x="0px" y="0px"
	 viewBox="0 0 691 620" style="enable-background:new 0 0 691 620;" xml:space="preserve">
<style type="text/css">
	
		.st0{clip-path:url(#SVGID_00000076593515639331842880000017067809808152460162_);fill:url(#SVGID_00000079486185939640392800000010034954856552888488_);}
</style>
<g>
	<defs>
		<path id="SVGID_1_" d="M321.5,506.2c-7.3,4.7-14.7,4-22.1,0.5c-9.5-4.6-16.3-12.2-22.4-20.5c-14.5-19.9-27.1-41.1-38.7-62.7
			c-7.1-13.1-14-26.3-20.8-39.6c4.8,4.9,10.2,9.3,16.1,12.9l0.1,0c3.5,2.2,8.8,5.5,15.3,6.9c3.2,6.4,6.3,12.7,9.4,19.1
			c7.4,15.2,14.2,30.6,21.7,45.7c3.7,7.5,8.2,14.6,12.6,21.7c1.8,3,4.3,5.4,7.9,6.5c3.5,1,5.9-0.5,6-4.1c0-1,0-2.1,0-3.1
			c-0.2,0-0.4,0-0.5,0c0.3-3.8,0.5-7.6,1.1-11.4c0.7-4.2,6.5-5.8,10.2-4.4c7.1,2.7,10,8.6,11.3,15.3C330,495.8,328,502,321.5,506.2z
			 M198,303.1c-8.6-16.9-17.2-33.8-25.9-50.6c-8.6-16.5-16.8-33.2-26-49.3c-10.1-17.7-21.1-35.1-31.9-52.4
			c-5.4-8.7-11.5-16.9-19.8-23.2c-5.5-4.2-11.2-7.8-18.4-8c-5.5-0.1-10.5,1.5-14.3,5.4c-9.3,9.4-4.1,25.8,6.2,30.4
			c4.3,1.9,9.1,0.2,10.6-4.1c0.6-1.7,0.4-3.8,0.4-5.7c0-3.1-0.4-6.2-0.3-9.3c0.1-3.2,2.4-4.9,5.5-4.1c1.7,0.4,3.7,1.1,4.8,2.4
			c3.4,3.8,7.1,7.6,9.5,12.1c5.2,9.5,9.7,19.4,14.4,29.1c8.9,18.3,17.6,36.8,26.7,55c11.4,22.9,23.1,45.6,34.7,68.3
			c10.3,20.2,20.5,40.4,30.9,60.5c0.3,0.5,0.5,1,0.8,1.5c0-4.5,1.2-9,3.6-13.3c2-3.6,4-7.1,6-10.5c-1.1-2.1-2.2-4.2-3.2-6.3
			C207.3,321.6,202.7,312.3,198,303.1z M592.9,112.9c-10.7,0.6-19.4,11.6-18.2,21.2c0.7,5.7,6,9.1,11.2,6.6c3.2-1.6,6.3-3.4,9.2-5.4
			c1.9-1.3,3.9-1.9,5.8-0.9c2.4,1.3,3.2,3.8,2.6,6.3c-0.9,3.6-1.8,7.4-3.7,10.6c-5.6,9.5-11.4,18.8-17.5,28
			c-12.5,18.6-25.5,37-38,55.7c-8.3,12.2-16.2,24.7-24.2,37.1c-11.2,17.3-22.4,34.6-33.7,51.9c-5.3,8.2-10.7,16.3-16,24.4
			c-0.3,17-6.4,33.7-17.3,47c-7,8.6-15.6,15.4-25.3,20.2c-4.9,8-9.7,16.1-14.2,24.3c-7.6,13.6-14.4,27.8-21.2,41.8
			c-3.7,7.7-6.1,15.9-6.7,24.6c0.4,3.1,0.5,6.3,1.2,9.3c1.8,8.3,9.4,14.9,16.9,15.3c10.2,0.6,19.4-8.6,20.1-18.3
			c0.5-6.5-3.3-11.6-9.9-9.6c-2,0.6-3.8,2-5.7,3.2c-2.1,1.3-3.9,2.9-6.1,3.9c-4,1.8-7-0.3-7.2-4.7c-0.2-5.4,1.4-10.4,4.2-14.6
			c11-16.7,22.3-33.2,33.5-49.8c8.5-12.7,17.1-25.4,25.5-38.2c9.3-14.2,18.5-28.5,27.7-42.7c8.9-13.7,17.9-27.4,26.8-41.1
			c7.5-11.5,14.9-23.1,22.3-34.6c11.8-18.5,23.9-36.9,35.3-55.6c12.1-19.9,23.5-40.2,33.3-61.3c3.9-8.4,7.4-17.1,8.3-26.4
			c0.8-7.6,0.1-14.9-4.8-21.2C603.7,115.1,598.6,112.5,592.9,112.9z M150.1,82.8c5.5-3.1,8.5-10.2,1.5-14.8c-2.9-1.9-6-3.5-9.2-5
			c-2.1-1-3.7-2.4-3.6-4.6c0.1-2.3,1.7-3.9,3.8-4.9c4.6-2.1,9.6-2.7,14.5-2.7c7,0,14,0.3,20.9,0.8c10.7,0.8,21.4,1.9,32.1,2.8
			c6.8,0.6,13.6,1.3,20.4,1.8c8,0.5,16.1,0.8,24.1,1.2c11.7,0.7,23.3,1.5,35,2.1c8.5,0.5,16.9,0.7,25.4,1.1
			c11.4,0.6,22.9,1.2,34.3,1.8c1.2,0.1,2.4,0.1,3.5,0.2c2.4-5.4,7.2-9.6,13.3-11.1c1.2-0.3,2.5-0.5,3.7-0.6c2.6-0.2,5.3-0.5,8.2-0.5
			c2.6,0,5,0.2,7.3,0.5c10.2,1.5,19.4,6.1,26.6,13.1c0.5,0.5,1,1,1.4,1.5c3.6-4.4,8.6-7.4,14.4-8.3c1.2-0.2,2.5-0.3,3.7-0.3
			c6.3,0,12.1,2.5,16.3,7.1c1,1.1,1.9,2.3,2.6,3.5c0.5,0,0.9,0,1.4,0c14.5,0.3,29,0.3,43.6,0.1c10.2-0.1,20.5-0.3,30.7-0.8
			c11.2-0.5,22.4-1.2,33.2-4.6c6.6-2,12.6-4.9,17.5-9.8c7.7-7.6,8-19.3,0.6-26.6c-5.5-5.4-16.8-7-23.2-3c-2.9,1.8-5.1,4.3-5,8.1
			c0.1,3.5,2.5,5.2,5.1,6.7c2,1.1,4.2,1.7,6.2,2.8c1.8,1.1,4,2.2,5,3.9c1.7,3,0.1,6.4-4,7.7c-4.5,1.4-9.3,2.8-14,2.7
			c-11.3-0.2-22.5-1.2-33.7-2.1c-15.7-1.2-31.4-2.5-47.1-3.7c-8.5-0.6-17.1-0.9-25.7-1.4c-8.1-0.5-16.2-1.1-24.3-1.5
			c-8.5-0.5-17.1-0.7-25.7-1.2c-8.6-0.4-17.3-0.9-25.9-1.4c-4.2-0.2-8.4-0.4-12.6-0.7c-6.2-0.4-12.4-0.9-18.6-1.2
			c-4.4-0.2-8.9-0.1-13.4-0.4c-8.4-0.4-16.7-1.1-25.1-1.5c-10-0.5-20.1-0.9-30.1-1.3c-11.5-0.5-23.1-1-34.6-1.2
			c-9.9-0.1-19.8,0.2-29.7,0.4c-9,0.2-18,0.5-28.3,0.7c-6.7,0.9-14.6,1.6-22.4,3.2c-8.7,1.8-16.9,5-23.2,11.7
			c-6.2,6.6-7.7,18.3-0.7,25.4C131.8,84.2,142.7,86.9,150.1,82.8z M209,223.7c0,1.7-0.1,3.5,0,5.3c0,0.2,0,0.3,0,0.5
			c0.6-0.9,1.2-1.8,1.8-2.5C210.2,225.8,209.6,224.7,209,223.7z M356.5,97.1c1.3-1.6,2.8-3.1,4.5-4.5c0.6-0.5,1.9-1.5,3.6-2.4
			c-0.5-0.5-0.9-0.9-1.4-1.4c-3.3-0.3-6.6-0.6-10-0.7c-39.7-1.3-75.2,13.4-101.1,38c3.7,0.1,7.2,1.1,10.2,2.9
			c23.1-20.7,51.1-31.7,83.1-32.2C349.1,96.8,352.8,96.9,356.5,97.1z M233.7,300.5c-1.4-0.1-2.8-0.4-4.1-0.7c1.2,2,2.5,3.9,3.9,5.8
			l2.9-5.1c-0.1,0-0.3,0-0.4,0C235.2,300.6,234.4,300.5,233.7,300.5z M666.8,65.2c0.1,19.7-15.1,35.3-36.4,34.4
			c-17.9-0.8-32.5-15.9-32.2-34.4c0.2-20.3,16.9-34.6,34.6-34C653.8,31.8,666.7,46.9,666.8,65.2z M658,65.5
			c0-13.8-10-25.2-25.2-25.7c-14.1-0.4-26.2,11.5-25.8,25.7c-0.2,13.6,11.1,25.2,24.6,25.4C646,91.2,657.9,80.4,658,65.5z
			 M382.3,558.6c-0.2,19.1-15.6,34.2-35.2,33.8c-18.1-0.4-34.2-15.3-33.3-35.8c0.8-18.6,15.7-33.1,34.9-32.8
			C367.1,524.2,382.4,539,382.3,558.6z M373.5,556.4c-0.9-12.8-11.6-24.5-27-23.7c-13.5,0.7-24.4,12.2-24.1,26.7
			c0.2,12.8,12.5,24.6,25.5,24.3C362.9,583.7,374.6,571.3,373.5,556.4z M29.3,65.7c0-19.1,13.2-33.6,33.2-34.6
			c19-0.9,35.4,14.1,35.4,34.2C98,84,83.6,98.8,65.5,99.6C44.5,100.5,29.4,84.8,29.3,65.7z M63.7,90.9C77.8,91.1,89,79.7,89.1,65.8
			c0.7-13.1-10.6-25.8-25-25.9c-14.2-0.1-25.8,10.6-26,25.4C38,80.2,49.5,90.8,63.7,90.9z M386.2,404.5c-0.2,0-0.3,0-0.5-0.1
			c-0.9-0.1-1.8-0.3-2.6-0.5c-0.2,0-0.3-0.1-0.5-0.1c-1.8-0.4-3.6-0.9-5.3-1.4c-0.1,0-0.3-0.1-0.4-0.1c-0.9-0.3-1.7-0.6-2.5-0.9
			c-0.1,0-0.2-0.1-0.3-0.1c-0.8-0.3-1.7-0.7-2.5-1c0,0-0.1,0-0.1-0.1c-0.8-0.4-1.7-0.8-2.5-1.2c-0.1-0.1-0.3-0.1-0.4-0.2
			c-0.8-0.4-1.6-0.8-2.4-1.3c-0.1,0-0.1-0.1-0.2-0.1c-0.8-0.4-1.5-0.9-2.3-1.4c-0.1,0-0.1-0.1-0.2-0.1c-0.8-0.5-1.5-1-2.3-1.5
			c-0.1-0.1-0.2-0.2-0.3-0.2c-0.8-0.5-1.5-1.1-2.2-1.7c0,0,0,0,0,0c-0.7-0.6-1.4-1.2-2.1-1.8c-0.1-0.1-0.2-0.1-0.3-0.2
			c-0.7-0.6-1.4-1.2-2-1.9c-0.1-0.1-0.2-0.2-0.3-0.3c-0.7-0.7-1.3-1.3-2-2c0,0,0,0,0,0c-1,0.8-1.9,1.6-2.9,2.3
			c-0.6,0.4-1.3,0.8-2,1.2c0,0,0,0,0,0c-0.3,0.2-0.6,0.3-0.9,0.5c-0.1,0-0.1,0.1-0.2,0.1c-0.3,0.1-0.5,0.3-0.8,0.4
			c-0.1,0.1-0.2,0.1-0.3,0.2c-0.3,0.1-0.5,0.2-0.8,0.4c-0.1,0.1-0.3,0.1-0.4,0.2c-0.2,0.1-0.5,0.2-0.8,0.3c-0.1,0.1-0.3,0.1-0.4,0.2
			c-0.2,0.1-0.5,0.2-0.7,0.3c-0.2,0.1-0.3,0.1-0.5,0.2c-0.2,0.1-0.5,0.2-0.7,0.3c-0.2,0.1-0.3,0.1-0.5,0.2c-0.2,0.1-0.5,0.2-0.7,0.2
			c-0.2,0.1-0.4,0.1-0.6,0.2c-0.2,0.1-0.5,0.1-0.7,0.2c-0.2,0.1-0.4,0.1-0.6,0.2c-0.2,0.1-0.5,0.1-0.7,0.2c-0.2,0-0.4,0.1-0.6,0.1
			c-0.2,0-0.5,0.1-0.7,0.1c-0.2,0-0.4,0.1-0.6,0.1c-0.2,0-0.5,0.1-0.7,0.1c-0.2,0-0.4,0.1-0.6,0.1c-0.2,0-0.4,0.1-0.7,0.1
			c-0.2,0-0.4,0-0.7,0.1c-0.2,0-0.4,0-0.7,0.1c-0.2,0-0.4,0-0.7,0c-0.2,0-0.4,0-0.6,0c-0.2,0-0.5,0-0.7,0c-0.2,0-0.4,0-0.6,0
			c-0.2,0-0.4,0-0.6,0c-0.2,0-0.4,0-0.6,0c-0.2,0-0.4,0-0.6,0c-0.2,0-0.4,0-0.6-0.1c-0.2,0-0.4,0-0.6-0.1c-0.2,0-0.4-0.1-0.6-0.1
			c-0.2,0-0.4-0.1-0.6-0.1c-0.2,0-0.4-0.1-0.6-0.1c-0.2,0-0.4-0.1-0.6-0.1c-0.2,0-0.4-0.1-0.6-0.1c-0.2-0.1-0.4-0.1-0.6-0.2
			c-0.2-0.1-0.4-0.1-0.5-0.2c-0.2-0.1-0.4-0.1-0.6-0.2c-0.2-0.1-0.3-0.1-0.5-0.2c-0.2-0.1-0.4-0.2-0.6-0.3c-0.2-0.1-0.3-0.1-0.5-0.2
			c-0.2-0.1-0.4-0.2-0.6-0.3c-0.2-0.1-0.3-0.2-0.5-0.3c-0.2-0.1-0.4-0.2-0.6-0.3c-0.1-0.1-0.3-0.2-0.4-0.3c-0.2-0.1-0.4-0.3-0.6-0.4
			c-0.1-0.1-0.3-0.2-0.4-0.3c-0.2-0.1-0.4-0.3-0.6-0.5c-0.1-0.1-0.2-0.2-0.3-0.3c-0.2-0.2-0.4-0.3-0.6-0.5c-0.1-0.1-0.2-0.2-0.3-0.3
			c-0.2-0.2-0.4-0.4-0.6-0.6c-0.1-0.1-0.1-0.1-0.2-0.2c-0.5-0.6-0.9-1.2-1.4-1.8c-3.6-5.7-2.6-13.7,2.8-17.8c0,0,0.1-0.1,0.1-0.1
			c0.3-0.2,0.6-0.4,0.8-0.6c0.1-0.1,0.2-0.1,0.4-0.2c0.2-0.1,0.4-0.3,0.7-0.4c0.1-0.1,0.3-0.1,0.4-0.2c0.2-0.1,0.5-0.2,0.7-0.3
			c0.1,0,0.2-0.1,0.3-0.1c0.3-0.1,0.7-0.2,1-0.3c0.1,0,0.2,0,0.3-0.1c0.3-0.1,0.6-0.1,0.8-0.2c0.1,0,0.2,0,0.4,0
			c0.3,0,0.5,0,0.8-0.1c0.1,0,0.2,0,0.4,0c0.2,0,0.3,0,0.5,0c0.3,0,0.6,0,0.9,0.1c0.2,0,0.3,0,0.5,0.1c0.3,0,0.6,0.1,0.9,0.2
			c0.2,0,0.3,0.1,0.5,0.1c0.3,0.1,0.6,0.2,1,0.3c0.1,0,0.2,0.1,0.3,0.1c0.4,0.2,0.8,0.3,1.2,0.5c0.1,0.1,0.2,0.1,0.4,0.2
			c0.3,0.2,0.5,0.3,0.8,0.5c0.1,0.1,0.3,0.2,0.4,0.3c0.2,0.2,0.5,0.3,0.7,0.5c0.1,0.1,0.3,0.2,0.4,0.4c0.2,0.2,0.4,0.4,0.6,0.6
			c0.1,0.1,0.2,0.3,0.4,0.4c0.3,0.3,0.5,0.6,0.8,1c0,0.1,0.1,0.1,0.1,0.2c1.8,2.5,0.4,6.3-2,7.7c0,0,0,0-0.1,0
			c-0.2,0.1-0.3,0.2-0.5,0.3c-0.1,0-0.1,0.1-0.2,0.1c-0.1,0.1-0.3,0.1-0.4,0.1c-0.1,0-0.1,0-0.2,0.1c-0.2,0-0.4,0.1-0.6,0.1
			c0,0,0,0,0,0c-0.2,0-0.4,0-0.6,0c-0.1,0-0.1,0-0.2,0c-0.2,0-0.3,0-0.5,0c-0.1,0-0.1,0-0.2,0c-0.4-0.1-0.8-0.2-1.2-0.3
			c0,0-0.1,0-0.1-0.1c-0.2-0.1-0.3-0.1-0.5-0.2c0,0-0.1,0-0.1-0.1c-0.4-0.2-0.7-0.4-1.1-0.7c0,0-0.1,0-0.1-0.1
			c-0.1-0.1-0.3-0.2-0.4-0.4c0,0-0.1,0-0.1-0.1c-0.2-0.2-0.3-0.3-0.4-0.5c-0.2-0.1-0.4-0.2-0.6-0.2c0,0,0,0,0,0
			c-0.1,0-0.2,0.1-0.2,0.1c-0.1,0-0.2,0.1-0.3,0.2c-0.1,0.1-0.2,0.2-0.1,0.2c0,0,0,0,0,0c0,0,0,0,0,0c0,0,0,0,0.1-0.1c0,0,0,0,0,0
			c-0.1,0.1-0.2,0.2-0.2,0.3c-0.1,0.2-0.1,0.6-0.2,0.7c0,0.3,0.1,0.7,0.1,0.8c0.3,1.1,1.2,2.2,2.7,2.8c0.4,0.2,0.7,0.3,1.1,0.4
			c0.1,0,0.2,0,0.2,0.1c0.4,0.1,0.7,0.2,1.1,0.2c0,0,0,0,0.1,0c0.4,0.1,0.7,0.1,1.1,0.1c0.1,0,0.2,0,0.3,0c0.4,0,0.8,0,1.1,0
			c0,0,0.1,0,0.1,0c0.5,0,1,0,1.5,0c0,0,0,0,0,0c5.4-0.3,10.2-2.6,14.2-6c-2.2-3.7-4-7.6-5.3-11.7c-0.6-2-1.2-4-1.6-6
			c-3.3-1.4-6.6-3-9.8-4.8c-8.6-4.8-16.4-11.1-22.2-19c0,0,0,0,0,0c-3.1,3.2-6.1,6.5-9.2,9.7c-2.3,2.4-4.6,4.9-6.9,7.3
			c-3.5,3.7-7,7.4-10.5,11.1c-2.3,2.5-4.7,5-7,7.4c0.1,0.2,0.3,0.3,0.4,0.5c4.1,5.8,8.9,11.1,14.4,15.6c4.1,3.3,9.3,6.3,14.3,8.9
			c1.8,0.9,2.3,3.4,1.3,5.1c-0.1,0.2-0.3,0.4-0.4,0.6c0,0-0.1,0.1-0.1,0.1c-0.3,0.3-0.7,0.6-1.1,0.8c0,0-0.1,0-0.1,0.1
			c-0.4,0.2-0.8,0.3-1.2,0.3c-0.1,0-0.1,0-0.2,0c-0.2,0-0.4,0-0.6,0c0,0,0,0,0,0c-0.2,0-0.4-0.1-0.6-0.1c-0.1,0-0.1,0-0.2-0.1
			c-0.2-0.1-0.4-0.1-0.6-0.2c0,0,0,0,0,0c-5.6-2.9-10.9-6.1-15.8-10c-5.7-4.5-10.5-10-14.7-15.9c0,0,0,0,0,0
			c-1.5,1.6-3.1,3.3-4.6,4.9c-0.9,1-1.8,2.1-2.8,3c-0.3,0.3-0.6,0.5-0.9,0.7c0,0-0.1,0.1-0.1,0.1c-0.3,0.2-0.6,0.3-0.9,0.5
			c0,0-0.1,0-0.1,0.1c-0.3,0.1-0.6,0.2-0.9,0.3c0,0,0,0,0,0c-0.3,0.1-0.6,0.1-1,0.2c-0.1,0-0.1,0-0.2,0c-0.3,0-0.6,0-0.9,0
			c-0.1,0-0.2,0-0.2,0c-0.3,0-0.5,0-0.8-0.1c-0.1,0-0.2,0-0.3,0c-0.3,0-0.6-0.1-1-0.2c-0.1,0-0.1,0-0.2-0.1
			c-0.3-0.1-0.5-0.1-0.8-0.2c-0.1,0-0.2-0.1-0.3-0.1c-0.3-0.1-0.6-0.2-0.8-0.3c-0.1,0-0.1,0-0.2-0.1c-0.3-0.1-0.6-0.2-0.9-0.4
			c-0.1-0.1-0.2-0.1-0.4-0.2c-0.2-0.1-0.4-0.2-0.7-0.3c-0.1-0.1-0.2-0.1-0.3-0.2c-0.3-0.1-0.6-0.3-0.8-0.4c-0.1-0.1-0.3-0.2-0.4-0.2
			c-0.2-0.1-0.3-0.2-0.5-0.3c-0.1-0.1-0.3-0.2-0.4-0.3c-0.1-0.1-0.2-0.1-0.4-0.2c-0.3-0.2-0.7-0.4-1-0.6c0,0,0,0,0,0
			c-0.4-0.3-0.9-0.5-1.3-0.8c-2.9-1.8-5.8-3.9-8.4-6.2c-3.4-2.9-6.5-6.1-9.2-9.5c-2.4-3.1-2.3-6.2-0.5-9.4c0,0,0,0,0-0.1
			c3.3-5.9,6.7-11.7,10.1-17.5c3.5-6,6.9-12.1,10.4-18.1c1.6-2.8,3.2-5.6,4.8-8.4c4.1-7.2,8.3-14.4,12.4-21.6
			c0.7-1.3,1.4-2.7,2.4-3.8c0.3-0.4,0.7-0.7,1-1c0,0,0,0,0,0c0.1-0.1,0.3-0.2,0.4-0.3c0.1,0,0.1-0.1,0.2-0.1
			c0.1-0.1,0.2-0.1,0.4-0.2c0.1,0,0.1-0.1,0.2-0.1c0.1,0,0.2-0.1,0.3-0.1c0.1,0,0.2-0.1,0.3-0.1c0.1,0,0.2-0.1,0.3-0.1
			c0.1,0,0.2-0.1,0.3-0.1c0.1,0,0.2,0,0.3,0c0.1,0,0.2,0,0.3,0c0.1,0,0.2,0,0.3,0c0.1,0,0.2,0,0.3,0c0.1,0,0.2,0,0.3,0
			c0.1,0,0.2,0,0.3,0c0.1,0,0.2,0,0.3,0c0.1,0,0.2,0,0.3,0c0.1,0,0.2,0,0.3,0.1c0.1,0,0.3,0,0.4,0.1c0.1,0,0.2,0,0.2,0.1
			c0.1,0,0.3,0.1,0.4,0.1c0,0,0.1,0,0.1,0c0.8,0.2,1.7,0.6,2.5,0.9c0.7,0.3,1.3,0.6,2,0.8c0,0,0,0,0,0c2.1-4,2.4-8.1,1.7-12.7
			c-0.6-4.4-1.4-8.6-0.6-13c0-0.1,0.1-0.3,0.1-0.4c0.1-0.3,0.1-0.6,0.2-0.9c0.1-0.2,0.1-0.4,0.2-0.6c0.1-0.2,0.1-0.5,0.2-0.7
			c0.1-0.2,0.1-0.4,0.2-0.6c0.1-0.2,0.2-0.4,0.3-0.6c0.1-0.2,0.2-0.4,0.3-0.6c0.1-0.2,0.2-0.4,0.3-0.6c0.1-0.2,0.2-0.3,0.3-0.5
			c0.1-0.2,0.3-0.4,0.4-0.6c0.1-0.1,0.2-0.3,0.3-0.4c0.2-0.3,0.5-0.7,0.8-1c0.1-0.1,0.2-0.2,0.3-0.3c0.2-0.2,0.4-0.4,0.6-0.6
			c0.1-0.1,0.3-0.2,0.4-0.3c0.2-0.2,0.4-0.3,0.6-0.5c0.1-0.1,0.3-0.2,0.4-0.3c0.2-0.1,0.4-0.3,0.6-0.4c0.1-0.1,0.3-0.2,0.5-0.3
			c0.2-0.1,0.4-0.2,0.7-0.4c0.1-0.1,0.3-0.1,0.4-0.2c0.3-0.1,0.6-0.2,0.9-0.3c0.1,0,0.2-0.1,0.3-0.1c0.4-0.1,0.8-0.2,1.2-0.3
			c0.1,0,0.2,0,0.4-0.1c0.3,0,0.6-0.1,0.9-0.1c0.2,0,0.3,0,0.5,0c0.3,0,0.6,0,0.9,0c0.1,0,0.2,0,0.2,0c0.4,0,0.8,0.1,1.3,0.1
			c0.1,0,0.2,0,0.2,0c0.4,0.1,0.9,0.2,1.4,0.3c1.9,0.6,3.7,1.7,5.1,3.1c0.8,0.8,1.9,3.1,2.9,3.4c0.1,0,0.2,0.1,0.2,0.2c0,0,0,0,0,0
			c0-0.2,0.1-0.4,0.2-0.7c0.3-0.7,0.3-1.6,0.5-2.3c0.5-2.2,1-4.3,1.5-6.5c0-0.1,0.1-0.2,0.1-0.4c0.9-3.4,2-7,3.6-10.1
			c1.8-3.5,4.2-6.5,8-8.2c0.2-0.1,0.4-0.2,0.6-0.3c0.6-0.2,1.1-0.4,1.7-0.6c0.1,0,0.2-0.1,0.4-0.1c0.6-0.2,1.1-0.3,1.7-0.4
			c0.1,0,0.1,0,0.2,0c0.5-0.1,1.1-0.2,1.6-0.2c0.1,0,0.2,0,0.4,0c0.6-0.1,1.1-0.1,1.7-0.1c0.3,0,0.6,0,0.9,0c0.1,0,0.1,0,0.2,0
			c0.3,0,0.5,0,0.8,0.1c0.1,0,0.3,0,0.4,0c0.1,0,0.2,0,0.3,0c0.3,0,0.6,0.1,0.9,0.1c0.1,0,0.3,0,0.4,0.1c0.3,0,0.5,0.1,0.8,0.2
			c0.1,0,0.2,0,0.4,0.1c0.3,0.1,0.7,0.2,1,0.2c0.1,0,0.1,0,0.2,0c0.4,0.1,0.8,0.2,1.1,0.3c0.1,0,0.2,0.1,0.2,0.1
			c0.3,0.1,0.6,0.2,0.9,0.3c0.1,0,0.2,0.1,0.3,0.1c0.3,0.1,0.5,0.2,0.8,0.3c0.1,0,0.2,0.1,0.3,0.1c0.3,0.1,0.6,0.3,0.9,0.4
			c0,0,0.1,0,0.1,0.1c0.4,0.2,0.7,0.4,1,0.6c0,0,0.1,0.1,0.1,0.1c0.3,0.2,0.6,0.4,0.8,0.5c0.1,0.1,0.2,0.1,0.3,0.2
			c0.2,0.2,0.5,0.3,0.7,0.5c0.1,0.1,0.2,0.1,0.2,0.2c0.3,0.2,0.5,0.4,0.8,0.6c0,0,0.1,0.1,0.1,0.1c0.3,0.3,0.6,0.5,0.9,0.8
			c0,0,0,0,0,0c0.3,0.3,0.5,0.5,0.7,0.8c0.1,0.1,0.1,0.1,0.2,0.2c0.2,0.2,0.4,0.5,0.6,0.7c0.1,0.1,0.1,0.1,0.2,0.2
			c0.2,0.3,0.4,0.5,0.6,0.8c0,0,0.1,0.1,0.1,0.1c0.4,0.7,0.8,1.3,1.1,2c0,0.1,0.1,0.1,0.1,0.2c0.1,0.3,0.2,0.6,0.3,0.9
			c0,0.1,0.1,0.2,0.1,0.3c0.1,0.3,0.2,0.6,0.3,0.9c0,0.1,0,0.1,0.1,0.2c0.2,0.8,0.4,1.6,0.4,2.4c0,0.1,0,0.2,0,0.2
			c0,0.3,0.1,0.7,0.1,1c0,0.1,0,0.2,0,0.3c0,0.3,0,0.7,0,1c0,0.1,0,0.1,0,0.2c0,0.4-0.1,0.9-0.1,1.3c-1,7.7-6.7,13.4-12.2,18.4
			c-2.8,2.6-5.8,5.2-7.9,8.5c-1.1,1.7-2.5,3.7-1,5.4c1,1.2,3.1,1.7,4.3,2.8c5.3,5,3.4,13.3-1.1,18.1c-2.7,2.8-6.2,4.7-9.5,6.8
			c-2.2,1.4-5.2,2.3-6.2,4.7c0,0.2,0,0.4-0.1,0.5c1,1.1,1.9,2.3,2.9,3.5c2.3,3,4.2,6,1.8,9.7c0,0,0,0-0.1,0.1
			c-0.1,0.2-0.3,0.5-0.5,0.7c-1.4,1.5-2.8,2.9-4.1,4.4c3.7,5.5,8.7,10.1,14.1,13.9c2.7,1.9,5.6,3.6,8.5,5.2c1,0.6,2.1,1.1,3.1,1.6
			c0,0,0,0,0,0c-0.7-14.3,3.7-28.8,13.1-40.2c9-11,22.1-18,35.8-20.1c0.2-1.4,1-2.7,2.5-3.7c25.6-16.4,52.5-32,81.8-41.1
			c-3.2-7.3-6.1-14.8-7.2-22.6c-0.3-2-0.5-4.1-0.4-6.1c0.1-1.1,0.1-2.4,0.6-3.3c0.5-0.9,1.4-1.6,2.3-2.2c0.3-0.2,0.6-0.4,0.9-0.6
			c0,0,0,0,0.1,0c0.4-0.3,0.8-0.5,1.3-0.7c0.1-0.1,0.3-0.1,0.4-0.2c0.4-0.2,0.8-0.3,1.2-0.5c0.1,0,0.1-0.1,0.2-0.1
			c0.5-0.2,0.9-0.3,1.4-0.4c0.1,0,0.3-0.1,0.4-0.1c0.4-0.1,0.8-0.2,1.2-0.2c0.1,0,0.2,0,0.3,0c0.5-0.1,1-0.1,1.5-0.1
			c0.1,0,0.2,0,0.4,0c0.4,0,0.9,0,1.3,0c0.1,0,0.2,0,0.2,0c0.2,0,0.5,0,0.7,0.1c0.3,0,0.5,0,0.8,0.1c0.1,0,0.2,0,0.3,0
			c0.5,0.1,1,0.1,1.5,0.3c1.4,0.3,2.3,1.5,2.6,2.8c0.1,0.6,0.2,1.3,0,1.8c-1.5,6-2.2,12.1-2.6,18.3c0,0,0,0,0,0
			c2.4-5.2,4.4-10.5,5.9-16c0.2-0.6,0.5-1.2,0.8-1.6c0.5-0.5,1.1-0.9,1.8-1c0.1,0,0.2,0,0.3,0c0,0,0,0,0,0c0.2,0,0.5,0,0.7,0
			c0.6,0,1.3,0.1,1.9,0.4c6.2,3,10.7,8.4,14.2,14.2c0.9,1.5,0.5,3.3-0.6,4.5c-3.1,3.6-6.7,6.7-10.6,9.5c2.9,0.1,5.8,0.5,8.6,1.3
			c1.6,0.4,2.8,2,2.8,3.6c-0.1,6.2-2.8,11.7-6.9,16.2c-0.2,0.2-0.4,0.3-0.6,0.5c0,0,0,0,0,0c-0.2,0.1-0.4,0.2-0.6,0.3
			c-0.1,0-0.1,0-0.2,0.1c-0.2,0.1-0.3,0.1-0.5,0.1c-0.1,0-0.2,0-0.3,0c-0.1,0-0.3,0-0.4,0c-0.1,0-0.3,0-0.4,0c-0.1,0-0.2,0-0.3,0
			c-0.2,0-0.3-0.1-0.5-0.1c-0.1,0-0.1,0-0.2-0.1c-0.2-0.1-0.4-0.2-0.7-0.3c0,0,0,0,0,0c-0.2-0.1-0.4-0.3-0.6-0.5
			c-2.8-2.6-5.9-4.9-9-7.1c-1.5-1-3.1-2.1-4.7-3c0,0,0,0,0,0c-7.9,18.9-14.6,38.2-20.4,57.9c-2.6,8.8-5,17.7-7.3,26.6
			c-0.1,0.3-0.2,0.7-0.4,1c0.5,3,0.8,6.1,0.8,9.2c-0.3,27.1-19.6,51.5-46.5,56.7c0,0,0,0-0.1,0c-0.8,0.2-1.6,0.3-2.4,0.4
			c-0.2,0-0.5,0.1-0.7,0.1c-0.7,0.1-1.4,0.2-2.1,0.2c-0.1,0-0.3,0-0.4,0c-0.8,0.1-1.6,0.1-2.4,0.2c-0.2,0-0.4,0-0.6,0
			c-0.7,0-1.3,0-2,0c-0.2,0-0.3,0-0.5,0c-0.9,0-1.8,0-2.7-0.1c-0.2,0-0.4,0-0.5,0c-0.9-0.1-1.8-0.1-2.7-0.2c-0.1,0-0.1,0-0.2,0
			C387.9,404.8,387,404.7,386.2,404.5z M493.1,249.3c-0.1,0-0.3,0-0.4,0c-0.6,0-1.1,0-1.7,0c-0.2,0-0.4,0-0.7,0
			c-0.7,0-1.4,0.1-2.2,0.1c0,0,0,0,0,0c2.5,1.7,5,3.6,7.3,5.5c0,0,0,0,0,0c0.5-0.8,1-1.7,1.5-2.6c0-0.1,0.1-0.1,0.1-0.1
			c0,0,0-0.1,0.1-0.2c0.1-0.2,0.2-0.5,0.2-0.7c0.2-0.5,0.3-1.1,0.5-1.6c-0.7-0.1-1.4-0.2-2.1-0.3c-0.1,0-0.3,0-0.4,0
			C494.5,249.3,493.8,249.3,493.1,249.3z M484.3,239.5C484.3,239.5,484.3,239.5,484.3,239.5c0.8-0.5,1.6-1,2.4-1.6
			c3.8-2.6,7.4-5.4,10.7-8.7c-1.7-2.5-3.6-4.8-6-6.6c0,0,0,0,0,0c-1.3,3.9-2.8,7.7-4.5,11.4C486.1,235.8,485.2,237.7,484.3,239.5z
			 M470.3,217.4c-0.1,4.2,0.7,8.3,1.9,12.3c0,0,0,0.1,0,0.1c0,0,0,0,0,0c0.3-4.6,0.8-9.2,1.7-13.8c0,0,0,0,0,0
			C472.7,216.2,471.5,216.7,470.3,217.4z M309.4,321.3c-0.1-0.1-0.2-0.3-0.3-0.4c-0.4-0.5-0.8-1.1-1.2-1.6c-0.6-0.8-1.2-1.5-1.9-2.3
			c-1.3-1.5-2.6-2.9-3.9-4.3c-1.7-1.8-3.5-3.5-5.4-5.1c-1.8-1.4-3.6-2.9-5.4-4.3c-0.7-0.5-1.4-0.9-2-1.4c-1-0.7-2-1.3-3-2
			c-1.5-0.9-2.9-1.8-4.4-2.6c-1.9-1-3.8-2-5.8-2.8c-0.5-0.2-4.2-1.3-5.6-2c0,0,0,0,0,0c-0.3,0.9-1,1.7-1.4,2.5
			c-1.7,3-3.4,5.9-5.1,8.9c-2.7,4.7-5.4,9.4-8.1,14.1c-1.6,2.8-3.2,5.6-4.8,8.3c-4.6,8-9.2,15.9-13.7,23.9c-1.5,2.6-3,5.3-4.6,7.9
			c-0.4,0.7-1.5,2-1.7,2.9c0,0,0,0,0,0c0,0,0,0,0,0c0,0,0.1,0,0.1,0c0,0,0,0,0.1,0c0,0,0.1,0,0.1,0.1c0,0,0,0,0.1,0.1
			c0.1,0.1,0.1,0.1,0.2,0.2c0,0,0,0,0,0c0.4,0.5,0.9,1.2,1,1.3c0.8,0.9,1.6,1.8,2.5,2.7c3,3.1,6.2,5.9,9.8,8.3
			c0.9,0.6,2.8,1.9,4.7,3.1c0,0,0.1,0,0.1,0.1c0.2,0.1,0.4,0.2,0.6,0.4c0.1,0,0.1,0.1,0.2,0.1c0.2,0.1,0.4,0.2,0.6,0.3
			c0.1,0,0.1,0.1,0.2,0.1c0.2,0.1,0.3,0.2,0.5,0.3c0.1,0,0.2,0.1,0.2,0.1c0.2,0.1,0.3,0.2,0.5,0.2c0.1,0,0.2,0.1,0.2,0.1
			c0.1,0.1,0.3,0.1,0.4,0.2c0.1,0,0.2,0.1,0.3,0.1c0.1,0,0.2,0.1,0.3,0.1c0.1,0,0.2,0.1,0.3,0.1c0.1,0,0.2,0,0.2,0.1
			c0.2,0,0.3,0,0.4,0c0.1,0,0.1,0,0.1,0c0.1,0,0.1,0,0.2,0c1.2-0.5,2.6-2.8,3.5-3.7c2.3-2.4,4.5-4.8,6.8-7.2
			c6-6.3,11.9-12.6,17.9-18.9c0.3-0.3,0.6-0.6,0.9-1c1.9-2.1,3.9-4.1,5.8-6.2C296.4,335.1,302.9,328.2,309.4,321.3z M323.1,377.5
			C323.1,377.6,323.2,377.6,323.1,377.5C323.2,377.6,323.1,377.6,323.1,377.5C323.1,377.6,323.1,377.6,323.1,377.5
			C323.1,377.5,323.1,377.5,323.1,377.5z M322.4,377.2c0.1,0,0.2,0,0.2,0c0,0,0,0-0.1,0C322.5,377.2,322.5,377.2,322.4,377.2
			C322.4,377.2,322.4,377.2,322.4,377.2c-0.1,0-0.2-0.1-0.2-0.1c0,0-0.1,0-0.1,0C322,377.2,322.1,377.2,322.4,377.2z M386.7,397
			c0.2,0,0.4,0.1,0.6,0.1c0.8,0.1,1.6,0.2,2.3,0.3c0,0,0.1,0,0.1,0c0.7,0.1,1.5,0.1,2.2,0.2c0.2,0,0.4,0,0.6,0
			c0.7,0,1.4,0.1,2.1,0.1c0.1,0,0.2,0,0.3,0c0.7,0,1.3,0,2,0c0.1,0,0.3,0,0.4,0c0.5,0,1.1-0.1,1.6-0.1c0.2,0,0.5,0,0.7-0.1
			c0.4,0,0.8-0.1,1.3-0.1c0.3,0,0.5-0.1,0.8-0.1c0.4-0.1,0.8-0.1,1.2-0.2c0.3,0,0.6-0.1,0.9-0.1c0.4-0.1,0.8-0.1,1.1-0.2
			c0.3-0.1,0.6-0.1,0.9-0.2c0.4-0.1,0.8-0.2,1.1-0.3c0.3-0.1,0.6-0.1,0.8-0.2c0.4-0.1,0.8-0.2,1.2-0.3c0.3-0.1,0.5-0.1,0.8-0.2
			c0.5-0.2,1.1-0.3,1.6-0.5c0.1,0,0.2-0.1,0.3-0.1c19.9-7,33.1-26.4,33.2-47.3c0-2.2-0.2-4.4-0.5-6.6c-3.5-1.4-6.9-2.8-10.4-4.4
			c-2.9-1.4-5.8-2.8-8.7-4.4c-15-8.3-28.3-19.4-37-34.4c0,0,0,0,0,0c-15,2-28.8,10.7-36.8,23.9c-6.4,10.7-8.4,23.3-6.2,35.3
			c0.6,3.1,1.5,6.2,2.6,9.2c0.7,1.9,1.6,3.7,2.5,5.5c0,0,0,0,0,0c1.2-1.5,2.3-3.1,3.2-4.7c0.1-0.2,0.3-0.4,0.4-0.6c0,0,0,0,0,0
			c0,0,0.1-0.1,0.1-0.1c0.1-0.2,0.2-0.3,0.4-0.4c0,0,0.1-0.1,0.1-0.1c0.1-0.1,0.3-0.2,0.4-0.3c0,0,0.1-0.1,0.1-0.1
			c0.2-0.1,0.3-0.2,0.5-0.3c0,0,0,0,0,0c0.2-0.1,0.4-0.2,0.6-0.3c0,0,0.1,0,0.1,0c0.2-0.1,0.3-0.1,0.5-0.1c0.1,0,0.1,0,0.2,0
			c0.1,0,0.3-0.1,0.4-0.1c0.1,0,0.1,0,0.2,0c0.1,0,0.3,0,0.4,0c0.1,0,0.1,0,0.2,0c0.2,0,0.4,0,0.6,0c0.1,0,0.1,0,0.2,0
			c0.2,0,0.3,0.1,0.5,0.1c0.1,0,0.1,0,0.2,0c0.2,0,0.4,0.1,0.5,0.2c0,0,0.1,0,0.1,0c0.2,0.1,0.4,0.2,0.5,0.2c0.1,0,0.1,0.1,0.2,0.1
			c0.1,0.1,0.3,0.1,0.4,0.2c0.1,0,0.1,0.1,0.2,0.1c0.2,0.1,0.3,0.2,0.5,0.4c0.1,0,0.1,0.1,0.2,0.1c0,0,0.1,0.1,0.1,0.1
			c0.1,0.1,0.1,0.1,0.2,0.2c0.1,0.1,0.1,0.1,0.2,0.2c0.1,0.1,0.2,0.2,0.3,0.3c0,0.1,0.1,0.1,0.1,0.2c0.1,0.2,0.2,0.3,0.3,0.5
			c0,0.1,0.1,0.1,0.1,0.2c0.1,0.1,0.1,0.2,0.2,0.4c0,0.1,0.1,0.2,0.1,0.2c0.1,0.2,0.1,0.4,0.2,0.6c0,0.1,0,0.1,0,0.2
			c0,0.1,0.1,0.3,0.1,0.4c0,0.1,0,0.2,0,0.3c0,0.1,0,0.3,0,0.4c0,0.1,0,0.2,0,0.2c0,0.2-0.1,0.4-0.1,0.6c0,0.1,0,0.2-0.1,0.2
			c0,0.2-0.1,0.3-0.2,0.5c0,0.1-0.1,0.2-0.1,0.3c-0.1,0.2-0.2,0.4-0.3,0.6c0,0,0,0.1-0.1,0.1c-1.8,3.1-3.8,5.9-6.2,8.6
			c0.6,0.6,1.1,1.2,1.7,1.8c0.1,0.1,0.2,0.2,0.4,0.4c0.5,0.5,1.1,1,1.6,1.5c0.1,0.1,0.1,0.1,0.2,0.2c0.6,0.5,1.2,1.1,1.9,1.6
			c0.1,0.1,0.2,0.2,0.4,0.3c0.5,0.4,1.1,0.9,1.7,1.3c0.1,0.1,0.2,0.2,0.4,0.3c0.7,0.5,1.3,0.9,2,1.4c0.1,0.1,0.2,0.1,0.3,0.2
			c0.6,0.4,1.2,0.7,1.8,1.1c0.2,0.1,0.3,0.2,0.5,0.3c1.4,0.8,2.8,1.5,4.3,2.1c0.2,0.1,0.3,0.2,0.5,0.2c0.7,0.3,1.3,0.6,2,0.8
			c0.1,0,0.2,0.1,0.2,0.1c0.7,0.3,1.5,0.5,2.2,0.8c0.2,0.1,0.3,0.1,0.5,0.2c0.6,0.2,1.3,0.4,1.9,0.6c0.2,0,0.3,0.1,0.5,0.1
			c0.8,0.2,1.5,0.4,2.3,0.5c0.1,0,0.3,0.1,0.4,0.1C385.4,396.8,386,396.9,386.7,397z M330.6,192.9c-0.9-2.5-2-4.9-3.1-7.3
			c-0.7-1.4-1.3-2.8-2-4.3c0,0,0,0,0,0c-3,2.3-6.3,4.4-9.4,6.5c-3.9,2.6-7.8,5.4-12,7.6c2.3,5.2,4.1,10.6,4.9,16.2
			c0.1,0.9,0.3,1.8,0.3,2.7c0.2,2.4,0.3,5.2-0.3,7.6c-0.6,2.7-2,5.1-4.8,6.4c-0.3,0.1-0.6,0.2-0.9,0.3c-0.1,0-0.2,0-0.2,0.1
			c-0.2,0.1-0.4,0.1-0.6,0.2c0,0-0.1,0-0.1,0c-0.1,0-0.1,0-0.2,0c-0.2,0-0.4,0.1-0.5,0.1c-0.1,0-0.2,0-0.3,0c-0.2,0-0.4,0-0.6,0
			c-0.1,0-0.2,0-0.2,0c-0.3,0-0.5-0.1-0.8-0.1c0,0-0.1,0-0.1,0c-0.2-0.1-0.5-0.1-0.7-0.2c-0.1,0-0.2-0.1-0.3-0.1
			c-0.2-0.1-0.3-0.1-0.5-0.2c-0.1,0-0.2-0.1-0.3-0.1c-0.1-0.1-0.3-0.2-0.4-0.3c-0.1,0-0.2-0.1-0.2-0.1c-0.2-0.1-0.4-0.3-0.6-0.4
			c-0.1-0.1-0.1-0.1-0.2-0.2c-0.1-0.1-0.2-0.2-0.4-0.4c-0.1-0.1-0.2-0.2-0.2-0.2c-0.1-0.1-0.2-0.2-0.3-0.4c-0.1-0.1-0.1-0.2-0.2-0.3
			c-0.1-0.1-0.2-0.3-0.3-0.4c-0.1-0.1-0.1-0.2-0.2-0.3c-0.1-0.2-0.2-0.4-0.3-0.7c0-0.1-0.1-0.2-0.1-0.3c0,0,0,0,0,0
			c-0.1-0.1-0.1-0.3-0.2-0.4c0-0.1-0.1-0.2-0.1-0.4c0-0.2-0.1-0.3-0.1-0.5c0-0.1-0.1-0.2-0.1-0.4c0-0.2-0.1-0.4-0.1-0.6
			c0-0.1,0-0.2,0-0.2c-0.1-1.1,0-2.3,0.3-3.3c0,0,0,0,0,0c0.1-0.2,0.1-0.5,0.2-0.7c0,0,0-0.1,0-0.1c0-0.1,0.1-0.2,0.2-0.4
			c0-0.1,0.1-0.2,0.1-0.2c0-0.1,0-0.1,0.1-0.2c0.1-0.2,0.2-0.4,0.3-0.5c0-0.1,0.1-0.1,0.1-0.2c0.1-0.2,0.2-0.3,0.3-0.5
			c0.1-0.1,0.1-0.2,0.2-0.2c0.1-0.1,0.2-0.3,0.3-0.4c0.1-0.1,0.1-0.2,0.2-0.2c0.1-0.1,0.2-0.2,0.3-0.3c0,0,0.1,0,0.1-0.1
			c0.1-0.1,0.1-0.1,0.2-0.2c0.1-0.1,0.2-0.2,0.4-0.3c0.1-0.1,0.2-0.1,0.3-0.2c0.1-0.1,0.2-0.2,0.4-0.2c0.1-0.1,0.2-0.1,0.3-0.2
			c0.1-0.1,0.3-0.1,0.4-0.2c0.1-0.1,0.2-0.1,0.4-0.2c0.1,0,0.3-0.1,0.4-0.1c0.1,0,0.3-0.1,0.4-0.1c0.1,0,0.3-0.1,0.4-0.1
			c0.1,0,0.3-0.1,0.4-0.1c0.1,0,0.3,0,0.4,0c0.2,0,0.4,0,0.6,0v0c-0.3-2.1-0.8-4.2-1.4-6.3c-0.1-0.5-0.3-1-0.5-1.5
			c-2-6.2-5-12-8.2-17.8c-1.5-2.7-3.7-5.8-4.2-8.8c-0.3-1.9,0.1-3.9,1.7-5.6c4.1-4.2,9.9-7.6,14.8-10.7c2.6-1.7,5.3-3.3,8.1-4.9
			c0.4-0.2,0.7-0.4,1.1-0.6c0.1-0.1,0.2-0.1,0.3-0.2c0.1-0.1,0.3-0.1,0.4-0.2c0.1-0.1,0.3-0.1,0.4-0.2c0.1-0.1,0.2-0.1,0.4-0.2
			c0.2-0.1,0.3-0.1,0.5-0.2c0.1,0,0.2-0.1,0.3-0.1c0.2-0.1,0.5-0.2,0.7-0.2c0,0,0.1,0,0.1,0c0.3-0.1,0.6-0.1,0.8-0.1
			c0.1,0,0.2,0,0.3,0c0.2,0,0.4,0,0.6,0c0.1,0,0.1,0,0.2,0c0.3,0,0.6,0.1,0.8,0.1c2.9,0.7,4,3.3,5.1,5.8c1.4,3.1,2.9,6.2,4.3,9.3
			c2.7,5.8,5.5,11.5,8,17.4c2.1,4.8,5.2,11.3,1.9,16.3c-0.5,0.7-1.1,1.4-1.8,1.8c0,0-0.1,0.1-0.1,0.1c-0.2,0.1-0.4,0.2-0.5,0.3
			c-0.1,0-0.1,0.1-0.2,0.1c-0.2,0.1-0.3,0.2-0.5,0.2c-0.1,0-0.2,0.1-0.3,0.1c-0.2,0.1-0.3,0.1-0.5,0.2c-0.1,0-0.2,0.1-0.4,0.1
			c-0.1,0-0.3,0.1-0.4,0.1c-0.1,0-0.3,0.1-0.4,0.1c-0.1,0-0.3,0-0.4,0c-0.1,0-0.3,0-0.4,0c-0.1,0-0.3,0-0.4,0c-0.1,0-0.3,0-0.4,0
			c-0.1,0-0.3,0-0.4-0.1c-0.1,0-0.3,0-0.4-0.1c-0.1,0-0.2-0.1-0.3-0.1c-0.1,0-0.3-0.1-0.4-0.1c-0.1,0-0.2-0.1-0.3-0.1
			c-0.2-0.1-0.3-0.1-0.5-0.2c-0.1,0-0.1-0.1-0.2-0.1c-0.2-0.1-0.3-0.2-0.5-0.3c0,0-0.1-0.1-0.1-0.1c-0.6-0.5-1.2-1.2-1.6-2
			C324.6,199.6,327,195.4,330.6,192.9z M322.2,174.4c-1.4-3-2.8-6-4.2-9.1c-0.3-0.6-0.5-1.6-0.9-2.3c0,0,0,0,0,0
			c-0.2,0-0.4,0.1-0.7,0.4c-1,1-2.9,1.6-4.1,2.4c-2.4,1.4-4.7,2.9-7,4.4c-2.8,1.8-5.5,3.8-8.2,5.8c-0.2,0.2-1.1,0.9-1.7,1.3
			c0,0,0,0,0,0c-0.1,0.1-0.2,0.1-0.3,0.2c0,0,0,0,0,0c-0.1,0-0.2,0.1-0.2,0.1c0,0-0.1,0-0.1-0.1c0,0,0,0,0,0
			c-0.1,0.7,1.8,3.3,2.2,3.9c1.4,2.4,2.7,4.9,4,7.3c0,0,0,0,0,0c3.9-2.1,7.5-4.7,11.2-7.1c2.4-1.6,4.8-3.2,7.1-4.9
			c0.9-0.6,1.8-1.3,2.6-1.9C321.9,174.6,322.1,174.5,322.2,174.4z M236.6,268.2c1.2,0.1,2.4,0.5,3.5,1.3c0.8,0.6,1.4,1.4,1.8,2.2
			c0.7,1,1.2,2.2,1.3,3.4c0,0.5,0,1.1-0.1,1.6c0,0,0,0.1,0,0.1c0,0.2-0.1,0.4-0.2,0.7c0,0,0,0.1,0,0.1c-0.1,0.2-0.1,0.4-0.2,0.6
			c0,0.1-0.1,0.1-0.1,0.2c-0.1,0.2-0.2,0.3-0.2,0.5c0,0.1-0.1,0.1-0.1,0.2c-0.1,0.1-0.2,0.3-0.3,0.4c0,0.1-0.1,0.1-0.1,0.2
			c-0.1,0.1-0.2,0.3-0.3,0.4c-0.1,0.1-0.1,0.1-0.2,0.2c-0.1,0.1-0.2,0.2-0.3,0.3c-0.1,0.1-0.1,0.1-0.2,0.2c-0.1,0.1-0.2,0.2-0.4,0.3
			c-0.1,0.1-0.1,0.1-0.2,0.2c-0.1,0.1-0.3,0.2-0.4,0.3c-0.1,0-0.2,0.1-0.2,0.1c-0.1,0.1-0.3,0.1-0.4,0.2c-0.1,0-0.2,0.1-0.3,0.1
			c-0.1,0.1-0.3,0.1-0.4,0.2c-0.1,0-0.2,0.1-0.3,0.1c-0.1,0-0.3,0.1-0.4,0.1c-0.1,0-0.2,0.1-0.3,0.1c-0.1,0-0.3,0.1-0.4,0.1
			c-0.1,0-0.2,0-0.3,0c-0.1,0-0.3,0-0.4,0c-0.1,0-0.2,0-0.3,0c-0.2,0-0.5,0-0.7,0c0,0,0,0,0,0c-2.3-0.2-4.6-1.3-6.3-2.9
			c-1.1-1.1-2-2.4-2.4-3.9c-0.3-1-0.4-2-0.4-2.9c0.1-2.7,1.3-5.3,3.1-7.6c2.3-3.1,5.5-5.7,8-7.7c3.4-2.7,7.1-5,10.7-7.5
			c0.3-0.2,0.7-0.5,1-0.7c-0.2-0.1-0.5-0.2-0.7-0.3c-1.8-0.7-3.7-1.4-5.5-2.2c-1.2-0.5-2.2-1.4-2.6-2.6c-0.2-0.6-0.2-1.3,0-2
			c0,0,0-0.1,0-0.1c0,0,0,0,0,0c0.1-0.2,0.1-0.3,0.2-0.5c0-0.1,0.1-0.2,0.1-0.2c0.1-0.1,0.1-0.2,0.2-0.3c0,0,0,0,0,0
			c0.1-0.1,0.1-0.1,0.2-0.2c0.1-0.1,0.2-0.2,0.3-0.3c0.1-0.1,0.1-0.1,0.2-0.2c0.1-0.1,0.2-0.2,0.4-0.3c0.1,0,0.1-0.1,0.2-0.1
			c0.2-0.1,0.4-0.2,0.6-0.3c0.1,0,0.1,0,0.2,0c0.2-0.1,0.3-0.1,0.5-0.1c0.1,0,0.2,0,0.2,0c0.1,0,0.1,0,0.2,0c0.1,0,0.2,0,0.2,0
			c0.1,0,0.1,0,0.2,0c0.2,0,0.4,0.1,0.6,0.2c1.5,0.6,2.9,1.2,4.4,1.7c2.9,1.1,5.8,2.1,8.7,3.1c2.4,0.8,4,4.4,1.7,6.3
			c-6.4,5.2-14,9.1-20.1,14.7C238.3,266.3,237.4,267.2,236.6,268.2z M236.1,275.1C236.1,275,236.1,275,236.1,275.1
			C236,275,236,275,236.1,275.1c-0.1,0-0.1,0-0.1,0.1c0,0,0,0,0,0c0,0,0,0,0,0C236,275.1,236.1,275.1,236.1,275.1
			C236.1,275.1,236.1,275.1,236.1,275.1z M224,245C224,245,224,245,224,245c0,0.2,0,0.3,0.1,0.4c0,0,0,0.1,0,0.1
			c0,0.1,0,0.2,0.1,0.3c0,0,0,0.1,0,0.1c0,0.1,0.1,0.2,0.1,0.2c0,0,0,0.1,0.1,0.1c0,0.1,0.1,0.1,0.1,0.2c0,0,0.1,0.1,0.1,0.1
			c0,0.1,0.1,0.1,0.2,0.2c0,0,0.1,0.1,0.1,0.1c0.1,0,0.1,0.1,0.2,0.1c0.1,0,0.1,0.1,0.2,0.1c0.1,0,0.1,0.1,0.2,0.1
			c0.1,0,0.2,0,0.2,0.1c0.1,0,0.2,0,0.3,0.1c0.1,0,0.2,0,0.3,0c0.1,0,0.2,0,0.3,0c0.2,0,0.4,0,0.6,0c2-0.2,3.1-1.7,3.7-3.5
			c0.1-0.2,0.1-0.4,0.2-0.6c0-0.1,0-0.2,0-0.3c0-0.4,0-0.7-0.1-1.1c-0.4-2.3-1.8-3.9-4.2-4.1c-0.2,0-0.3,0-0.4,0
			c-0.3,0-0.5,0-0.7,0.1c0,0,0,0-0.1,0c-0.2,0.1-0.4,0.2-0.5,0.3c0,0,0,0-0.1,0c-0.2,0.1-0.3,0.3-0.4,0.4c0,0,0,0,0,0
			c-0.1,0.2-0.2,0.3-0.3,0.5c0,0,0,0,0,0c-0.1,0.2-0.1,0.4-0.2,0.6c0,0,0,0,0,0c-0.1,0.4-0.1,0.9-0.1,1.3c0,0.3,0,0.5,0,0.8
			C224,242.9,223.8,244,224,245z M218.4,177.5c0.2,0,0.4,0,0.6,0c0.7,0,1.4,0,2.1,0c0.1,0,0.3,0,0.4,0c0.1,0,0.1,0,0.2,0
			c0.8,0,1.5,0.1,2.3,0.1c0.2,0,0.4,0,0.6,0.1c0.7,0.1,1.3,0.1,2,0.2c0.2,0,0.4,0,0.6,0.1c0,0,0,0,0,0c0.7,0.1,1.4,0.2,2,0.3
			c0.1,0,0.3,0,0.4,0.1c0.1,0,0.1,0,0.2,0c0.1,0,0.1,0,0.2,0c0.1,0,0.2,0,0.3,0.1c0.2,0,0.4,0.1,0.6,0.1c0.4,0.1,0.8,0.2,1.1,0.2
			c0.2,0,0.4,0.1,0.6,0.1c0.4,0.1,0.8,0.2,1.2,0.3c0.4,0.1,0.8,0.2,1.2,0.3c0,0,0.1,0,0.2,0c0,0,0,0,0.1,0c0,0,0,0,0.1,0
			c0,0,0.1,0,0.1,0c0,0,0,0,0.1,0c0,0,0.1,0,0.2,0c0,0,0,0,0,0c0.1,0,0.1,0,0.2,0c0,0,0,0,0,0c0.3-0.1,0.6-0.2,0.8-0.3
			c0,0,0.1,0,0.1,0c0,0,0,0,0,0c0.1,0,0.1-0.1,0.2-0.1c0,0,0,0,0,0c0,0,0.1-0.1,0.1-0.1c0,0,0,0,0,0c0,0,0.1-0.1,0.1-0.1
			c0,0,0,0,0,0c0,0,0-0.1,0-0.1c0,0,0,0,0,0c0,0,0-0.1,0-0.1c0,0,0,0,0,0c0-0.1-0.1-0.2-0.2-0.3c-0.2-0.2-0.4-0.4-0.7-0.7
			c-0.2-0.2-0.5-0.4-0.7-0.7c-1.1-1.2-2.1-2.4-3.2-3.6c-0.3-0.3-0.5-0.5-0.8-0.8c-0.5-0.5-1.1-0.9-1.7-1.3c-0.1-0.1-0.2-0.2-0.4-0.3
			c-0.5-0.3-1-0.7-1.5-1c-0.6-0.3-1.2-0.6-1.8-0.9c-0.4-0.2-0.8-0.3-1.1-0.5c-1-0.4-2.1-0.7-3.1-1c-0.4-0.1-0.8-0.2-1.3-0.3
			c-0.6-0.1-1.2-0.2-1.8-0.3c-0.2,0-0.4,0-0.6-0.1c-0.4-0.1-0.9-0.1-1.3-0.1c-0.2,0-0.5,0-0.7-0.1c-0.1,0-0.3,0-0.4,0
			c-0.2,0-0.5,0-0.7,0c-0.3,0-0.5,0-0.8,0c-0.4,0-0.8,0-1.2,0c-0.2,0-0.4,0-0.6,0c-0.4,0-0.9,0-1.3,0.1c-0.2,0-0.3,0-0.5,0
			c-0.5,0-1,0.1-1.4,0.2c-0.1,0-0.2,0-0.3,0c-0.1,0-0.2,0-0.3,0.1c-0.5,0.1-1,0.2-1.4,0.3c-0.2,0-0.4,0.1-0.6,0.1
			c-0.4,0.1-0.8,0.2-1.2,0.3c-0.2,0.1-0.4,0.1-0.6,0.2c-0.5,0.1-1,0.3-1.4,0.5c-0.1,0-0.2,0.1-0.3,0.1c-0.5,0.2-1.1,0.4-1.6,0.7
			c-0.2,0.1-0.3,0.2-0.5,0.2c-0.4,0.2-0.7,0.4-1.1,0.5c-0.2,0.1-0.4,0.2-0.5,0.3c-0.4,0.2-0.7,0.4-1,0.7c-0.1,0.1-0.3,0.2-0.4,0.3
			c-0.5,0.3-0.9,0.7-1.3,1c-0.1,0.1-0.2,0.2-0.4,0.3c-0.3,0.3-0.6,0.6-0.9,0.9c0,0,0,0,0,0c-0.1,0.1-0.3,0.3-0.4,0.4
			c-0.3,0.3-0.5,0.6-0.8,0.9c-0.1,0.2-0.3,0.3-0.4,0.5c-0.3,0.4-0.6,0.9-0.9,1.3c0,0.1-0.1,0.1-0.1,0.2c-0.6,0.9-1,1.9-1.4,2.8
			c-0.2,0.6-0.5,1.2-0.7,1.8c-0.3,0.9-0.6,1.9-0.9,2.8c-0.1,0.4,0.2,0.7,0.7,0.7c0.1,0,0.3,0.1,0.4,0.1c0,0,0.1,0,0.1,0
			c0.1,0,0.2,0,0.2,0c0,0,0.1,0,0.1,0c0.1,0,0.2-0.1,0.3-0.1c0,0,0,0,0,0c0,0,0.1,0,0.1-0.1c0.7-0.4,1.3-0.7,2-1
			c0.2-0.1,0.4-0.2,0.6-0.3c0.5-0.2,1-0.5,1.5-0.7c0.2-0.1,0.4-0.2,0.6-0.3c0.1,0,0.2-0.1,0.3-0.1c0.6-0.3,1.3-0.5,2-0.8
			c0.2-0.1,0.4-0.2,0.6-0.2c0.7-0.3,1.5-0.5,2.2-0.8c0.1,0,0.3-0.1,0.5-0.1c0.7-0.2,1.3-0.4,2-0.6c0.2-0.1,0.4-0.1,0.6-0.2
			c0.8-0.2,1.5-0.4,2.3-0.6c0.2,0,0.4-0.1,0.5-0.1c0.7-0.1,1.4-0.3,2-0.4c0.2,0,0.4-0.1,0.5-0.1c0.8-0.1,1.6-0.2,2.4-0.3
			c0.2,0,0.4,0,0.6-0.1c0.7-0.1,1.4-0.1,2.1-0.2c0.1,0,0.3,0,0.4,0c0.1,0,0.3,0,0.4,0c0.2,0,0.5,0,0.7,0c0.3,0,0.7,0,1,0
			C218.1,177.5,218.2,177.5,218.4,177.5z M283.1,147.5c0-0.1-0.1-0.1-0.2-0.1c-0.8-0.5-1.8-0.6-2.7-0.6c0,0,0,0,0,0
			c-0.6-0.1-1.2-0.1-1.8-0.1c-0.1,0-0.2,0-0.3,0c-0.3,0-0.6,0-0.9,0c-0.1,0-0.3,0-0.4,0c-0.4,0-0.8,0-1.2,0.1
			c-1.3,0.1-2.6,0.3-3.8,0.6c-2.8,0.6-5.6,1.6-8.1,3c-0.9,0.5-1.8,1.1-2.7,1.7c-1.4,1-2.7,2.1-3.9,3.4c-2.6,2.6-4.8,5.6-6.4,8.9
			c-0.2,0.3-0.3,0.7-0.5,1c-0.1,0.1-0.1,0.2-0.2,0.4c-0.1,0.2-0.2,0.5-0.3,0.7c-0.3,0.7-0.5,1.3-0.8,2c0,0.1-0.1,0.3-0.1,0.4
			c-0.6,1.7-1,3.5-1.3,5.3c0,0.2-0.1,0.4-0.1,0.6c0,0.1,0,0.2-0.1,0.3c-0.1,0.3-0.1,0.7-0.2,1c0,0.1,0,0.3-0.1,0.4
			c0,0.1,0,0.2,0,0.3c0,0,0,0,0,0c0,0.1,0.1,0.1,0.1,0.1c0,0,0,0.1,0.1,0.1c0,0,0.1,0,0.2,0.1c0,0,0.1,0,0.1,0.1c0.1,0,0.1,0,0.2,0
			c0.1,0,0.1,0,0.2,0c0.1,0,0.1,0,0.2,0c0.1,0,0.1,0,0.2,0c0.1,0,0.1,0,0.2,0c0.1,0,0.2,0,0.2,0c0,0,0,0,0.1,0
			c0.2-0.1,0.4-0.1,0.5-0.2c0.7-0.4,1.3-0.8,2-1.2c0.8-0.5,1.7-1,2.5-1.5c0.3-0.2,0.6-0.3,0.8-0.5c0.2-0.1,0.3-0.2,0.5-0.3
			c1.2-0.7,2.4-1.5,3.5-2.3c2.2-1.5,4.4-3,6.6-4.6c4.3-3.2,8.4-6.8,12-10.7c2.2-2.3,4.2-4.8,5.8-7.6
			C283.3,147.9,283.3,147.6,283.1,147.5z M207.4,159.8c-0.3-0.2-0.5-0.3-0.8-0.5c-0.1-0.1-0.2-0.1-0.4-0.2c-0.3-0.1-0.5-0.3-0.8-0.4
			c-0.1-0.1-0.2-0.1-0.4-0.2c0,0,0,0,0,0c-0.3-0.1-0.6-0.2-0.9-0.3c-0.1,0-0.2-0.1-0.2-0.1c-0.4-0.1-0.8-0.2-1.2-0.3
			c-0.1,0-0.2,0-0.3,0c-0.3-0.1-0.7-0.1-1-0.1c-0.1,0-0.3,0-0.4,0c-0.3,0-0.6,0-0.9,0c-0.1,0-0.2,0-0.4,0c-0.4,0-0.8,0.1-1.2,0.1
			c0,0,0,0,0,0c-0.1,0-0.2,0-0.3,0.1c-1.1,0.2-2.2,0.5-2.4,1.7c-0.1,0.8,0,1.6,0.1,2.3c0,0.2,0.1,0.4,0.1,0.5c0.3,0.9,0.7,2,1.8,2.1
			c0,0,0,0,0,0c0.1,0,0.2,0,0.3,0c0.1,0,0.1,0,0.2,0c0.1,0,0.2,0,0.2,0c0.1,0,0.1,0,0.2,0c0.1,0,0.2-0.1,0.3-0.1c0,0,0.1,0,0.1,0
			c0.1,0,0.2-0.1,0.3-0.1c0,0,0.1,0,0.1,0c0.5-0.3,1-0.6,1.5-0.8c0.4-0.2,0.7-0.3,1.1-0.5c0,0,0.1,0,0.1-0.1
			c0.2-0.1,0.4-0.1,0.6-0.2c0.2,0,0.3-0.1,0.5-0.1c0.1,0,0.1,0,0.2,0c0.4-0.1,0.7-0.2,1.1-0.2c0,0,0.1,0,0.1,0
			c0.4,0,0.7-0.1,1.1-0.1c0,0,0.1,0,0.1,0c0.3,0,0.5,0,0.8,0c0,0,0,0,0,0c0,0,0,0,0,0c0,0,0,0,0.1,0c0,0,0,0,0,0c0,0,0,0,0,0
			c0.1,0,0.1,0,0.2,0c0.1,0,0.2,0,0.3,0c0,0,0.1,0,0.1,0c0.4-0.1,0.8-0.3,1-0.6c0,0,0-0.1,0.1-0.1c0,0,0,0,0-0.1c0,0,0,0,0,0
			c0.1-0.2,0.2-0.4,0-0.6c-0.3-0.3-0.7-0.5-1-0.8C207.6,159.9,207.5,159.9,207.4,159.8z M216.4,190
			C216.4,189.9,216.4,189.9,216.4,190c-0.1-0.1-0.1-0.2-0.2-0.3c-0.1-0.1-0.2-0.1-0.4-0.1c0,0-0.1,0-0.1,0c-0.1,0-0.3,0-0.4,0
			c-0.4,0-0.7,0-1.1,0c-0.1,0-0.2,0-0.2,0c-0.3,0-0.6,0-0.9,0c-0.3,0-0.7,0.1-1,0.1c-0.3,0-0.6,0.1-0.9,0.1c-0.3,0.1-0.7,0.1-1,0.2
			c-0.3,0.1-0.6,0.1-0.9,0.2c-0.3,0.1-0.6,0.2-1,0.3c-0.3,0.1-0.6,0.2-0.8,0.3c-0.2,0.1-0.3,0.2-0.5,0.2c-0.1,0.1-0.3,0.1-0.4,0.2
			c-0.3,0.1-0.5,0.2-0.8,0.4c-0.3,0.2-0.6,0.3-0.9,0.5c-0.2,0.1-0.5,0.3-0.7,0.4c-0.3,0.2-0.6,0.4-0.8,0.6c-0.2,0.2-0.4,0.3-0.7,0.5
			c-0.3,0.3-0.6,0.6-0.9,0.9c-0.1,0.1-0.3,0.3-0.4,0.4c-1.2,1.4-3.1,4.3-1.9,6c0.2,0.3,0.6,0.6,1,0.8c0.2,0.1,0.4,0.2,0.6,0.2
			c0.1,0,0.1,0,0.2,0c0.1,0,0.3,0,0.4,0c0.1,0,0.1,0,0.2,0c0.2,0,0.4,0,0.6-0.1c0.1,0,0.1,0,0.2,0c0.2,0,0.5-0.1,0.7-0.2
			c0.1,0,0.1,0,0.2-0.1c0.2-0.1,0.3-0.1,0.5-0.2c0.1,0,0.1-0.1,0.2-0.1c0.1,0,0.1-0.1,0.2-0.1c0.1-0.1,0.2-0.1,0.3-0.2
			c0,0,0,0,0.1,0c1.3-0.8,2.3-2.1,3.3-3.2c0.3-0.3,0.6-0.6,0.9-0.9c1.3-1.4,2.7-2.6,4.1-3.9c0.9-0.7,1.8-1.4,2.7-2.1
			c0.2-0.1,0.4-0.3,0.5-0.5C216.4,190.3,216.4,190.2,216.4,190C216.4,190,216.4,190,216.4,190z M235.3,186.5
			c-0.4,0.2-0.8,0.4-1.2,0.5c-0.4,0.2-0.7,0.3-1.1,0.5c-0.1,0-0.2,0.1-0.2,0.1c-0.3,0.1-0.5,0.3-0.8,0.4c-0.9,0.6-1.8,1.2-2.6,1.8
			c-0.5,0.4-0.9,0.8-1.4,1.2c-0.5,0.5-1,1-1.4,1.6c-0.8,0.9-1.5,1.9-2.1,3c-0.8,1.5-1.5,3-1.8,4.7c-0.6,2.7-0.6,5.5,0,8.2
			c0.3,1.3,0.6,2.6,1.1,3.9c0.9,2.5,2.2,4.9,3.7,7.1c1.2,1.7,2.4,3.4,3.8,4.9c0,0,0.1,0.1,0.1,0.1c0,0,0,0,0,0c0,0,0.1,0,0.1,0.1
			c0,0,0,0,0.1,0c0,0,0.1,0,0.1,0c0,0,0,0,0.1,0c0,0,0.1,0,0.1,0c0,0,0,0,0.1,0c0,0,0,0,0,0c0.1,0,0.2,0,0.3,0c0,0,0,0,0.1,0
			c0.1,0,0.2,0,0.2,0c0,0,0.1,0,0.1,0c0.1,0,0.1,0,0.2-0.1c0,0,0.1,0,0.1,0c0.1,0,0.2-0.1,0.3-0.1c0,0,0.1,0,0.1-0.1
			c0.1,0,0.1-0.1,0.2-0.1c0,0,0.1,0,0.1-0.1c0.1,0,0.1-0.1,0.2-0.1c0,0,0,0,0-0.1c0,0,0.1-0.1,0.1-0.1c0,0,0,0,0-0.1
			c0,0,0-0.1,0-0.1c0,0,0,0,0,0c0,0,0,0,0,0c0,0,0,0,0,0c-0.1-0.9-0.2-1.9-0.2-2.8c-0.2-4.5,0.7-9.2,1.7-13.5
			c0.1-0.3,0.1-0.6,0.2-0.9c0.5-2,1-4.1,1.6-6.1c0.3-1,0.6-2,0.8-3c0.4-1.4,0.8-2.9,1.2-4.3c0-0.2,0.1-0.4,0.1-0.5
			c0.2-0.5,0.3-1.1,0.5-1.6c0.2-0.9,0.5-1.7,0.8-2.5c0.1-0.5,0.3-0.9,0.5-1.3c0.2-0.5,0.4-1,0.6-1.5c0.1-0.3-0.3-0.4-0.5-0.4
			c-0.1,0-0.2,0-0.2,0c-0.2,0-0.3,0-0.5,0c-0.1,0-0.2,0-0.3,0c-0.1,0-0.2,0-0.4,0c-0.1,0-0.2,0-0.4,0c-0.1,0-0.2,0-0.3,0.1
			c-0.1,0-0.2,0-0.4,0.1c-0.1,0-0.2,0-0.3,0.1c-0.1,0-0.3,0.1-0.4,0.1c-0.1,0-0.2,0-0.2,0.1c0,0-0.1,0-0.1,0c-0.1,0-0.2,0.1-0.4,0.1
			c0,0-0.1,0-0.1,0C236.6,186.1,236,186.3,235.3,186.5z M244.5,195.6c-0.2,2.7-0.2,5.5-0.2,8.3c0,0.2,0,0.4,0,0.6
			c0,1.1,0.1,2.3,0.4,3.4c0.4,1.7,1.3,3.1,3.2,3.8c0.2,0.1,0.4,0.1,0.7,0.2c0.1,0,0.1,0,0.2,0c0.2,0,0.4,0,0.6,0c0,0,0,0,0.1,0
			c0.2,0,0.5,0,0.7-0.1c0.1,0,0.1,0,0.2,0c0.2,0,0.4-0.1,0.6-0.2c0,0,0.1,0,0.1-0.1c0.2-0.1,0.4-0.2,0.5-0.3c0,0,0.1,0,0.1-0.1
			c0.2-0.1,0.4-0.2,0.5-0.4c0,0,0.1-0.1,0.1-0.1c0,0,0,0,0,0c0.2-0.1,0.3-0.3,0.5-0.5c0,0,0.1-0.1,0.1-0.1c0.1-0.1,0.2-0.3,0.3-0.5
			c0-0.1,0.1-0.1,0.1-0.2c0.1-0.2,0.2-0.4,0.3-0.6c0-0.1,0-0.1,0.1-0.2c0.1-0.2,0.1-0.4,0.2-0.6c0,0,0,0,0-0.1
			c0.4-2.6-1.4-5.1-2.6-7.2c-1-1.7-2.1-3.4-2.9-5.2c0-0.1-0.1-0.1-0.1-0.2c0-0.1-0.1-0.1-0.1-0.2c-0.2-0.4-0.4-0.9-0.6-1.4
			c0-0.1-0.1-0.1-0.1-0.2c0,0,0,0,0,0c0-0.1-0.1-0.2-0.1-0.3c0,0,0,0-0.1,0c-0.1-0.1-0.1-0.1-0.2-0.1c0,0-0.1,0-0.1,0
			c-0.1,0-0.1,0-0.2-0.1c0,0-0.1,0-0.1,0c-0.1,0-0.2,0-0.3,0c0,0,0,0,0,0c0,0,0,0,0,0c0,0-0.1,0-0.1,0c-0.7,0.1-1.3,0.5-1.4,0.9
			c0,0.1,0,0.2,0,0.2c0,0.2,0,0.4,0,0.6C244.5,195.1,244.5,195.3,244.5,195.6z M268.2,201.4c1.2,1.3,2.3,3,3.6,4.3
			c0.7,0.7,1.5,1.4,2.4,1.8c0,0,0,0,0,0c0.3,0.1,0.5,0.2,0.8,0.3c0.1,0,0.1,0,0.2,0.1c0.3,0.1,0.5,0.1,0.8,0.1c0,0,0,0,0.1,0
			c0.3,0,0.5,0,0.8,0c0.1,0,0.1,0,0.2,0c0.3,0,0.6-0.1,0.8-0.1c0,0,0,0,0,0c0.3-0.1,0.5-0.2,0.8-0.3c0.1,0,0.1,0,0.2-0.1
			c0.4-0.2,0.8-0.4,1.1-0.7c0.1-0.1,0.2-0.2,0.3-0.3c0,0,0.1-0.1,0.1-0.1c0.2-0.2,0.4-0.4,0.6-0.7c1.6-2.5,0.4-5.4-0.9-7.8
			c-2-3.5-4.8-6.6-8.1-9.1c-1.2-0.9-2.5-1.7-3.8-2.4c0,0-0.1,0-0.1,0c-0.7-0.3-1.3-0.6-2-0.9c-0.2-0.1-0.4-0.1-0.5-0.2
			c-0.6-0.2-1.2-0.5-1.8-0.6c-0.1,0-0.3-0.1-0.4-0.1c-0.2-0.1-0.4-0.1-0.5-0.1c-0.6-0.2-1.1-0.3-1.7-0.4c-0.2,0-0.3-0.1-0.5-0.1
			c-0.3-0.1-0.6-0.1-0.9-0.2c-0.3-0.1-0.6-0.1-0.9-0.2c-0.2,0-0.4-0.1-0.6-0.1c-0.7-0.1-1.3-0.1-2-0.2c-0.1,0-0.2,0-0.2,0
			c-0.1,0-0.1,0-0.2,0c-0.3,0-0.7,0-1,0c-0.4,0-0.8,0-1.1,0c-0.1,0-0.3,0-0.4,0c-0.2,0-0.3,0-0.5,0c-0.6,0-1.1,0.1-1.7,0.1
			c-0.1,0-0.3,0-0.4,0c0,0,0,0,0,0c-0.7,0.1-1.5,0.2-2.2,0.3c0,0,0,0,0,0c-0.2,0-0.4,0.1-0.6,0.1c-0.2,0.1-0.4,0.1-0.5,0.2
			c-0.2,0.2-0.4,0.4-0.5,0.6c-0.1,0.5,0.5,0.7,0.9,0.7c0.5,0.1,1,0.2,1.5,0.4c0.2,0.1,0.3,0.1,0.5,0.2c0.4,0.2,0.8,0.4,1.2,0.6
			c0.7,0.4,1.4,0.8,2.1,1.2c0.5,0.4,1.1,0.7,1.6,1c0.4,0.3,0.8,0.6,1.2,0.8c1,0.8,2,1.5,3,2.4c0,0,0.1,0.1,0.1,0.1
			c0.9,0.8,1.8,1.5,2.7,2.3C263.8,196.7,266.1,199,268.2,201.4z M238,170.1c0,0.1,0.1,0.2,0.1,0.2c0,0,0.1,0,0.1,0.1
			c0.1,0,0.1,0.1,0.2,0.1c0,0,0.1,0,0.1,0c0.1,0,0.2,0,0.2,0c0,0,0.1,0,0.1,0c0,0,0.1,0,0.1,0c0.1,0,0.2,0,0.3,0c0,0,0,0,0,0
			c0,0,0.1,0,0.1,0c0.5-0.1,1-0.3,1.2-0.6c0.1-0.2,0.2-0.3,0.1-0.5c0-0.1,0-0.3,0-0.4c0-0.6,0-1.1,0-1.7c0,0,0,0,0,0
			c0-0.7-0.1-1.5-0.1-2.2c-0.1-0.5-0.1-1.1-0.2-1.6c-0.4-2.4-1-4.7-1.9-6.9c-0.3-0.6-0.5-1.2-0.8-1.8c-0.3-0.7-0.7-1.4-1.1-2
			c-0.1-0.1-0.1-0.2-0.2-0.3c-0.1-0.2-0.3-0.4-0.4-0.6c-0.8-1.2-1.7-2.4-2.7-3.5c-1.4-1.6-3.1-3-4.8-4.3c-1.5-1-3-2-4.6-2.7
			c-0.3-0.1-0.6-0.3-0.9-0.4c0,0-0.1,0-0.1-0.1c-0.3-0.1-0.5-0.2-0.8-0.3c-0.1,0-0.2-0.1-0.2-0.1c-0.3-0.1-0.6-0.2-0.9-0.3
			c0,0-0.1,0-0.1,0c-0.3-0.1-0.7-0.2-1-0.3c-0.1,0-0.1,0-0.2,0c-0.3-0.1-0.5-0.1-0.8-0.1c-0.1,0-0.2,0-0.3,0c-0.2,0-0.5,0-0.7-0.1
			c-0.1,0-0.2,0-0.3,0c-0.2,0-0.5,0-0.7,0c-0.1,0-0.2,0-0.4,0c-0.3,0-0.6,0.1-1,0.2c0,0-0.1,0-0.1,0c-1.4,0.4-2.6,1.2-3.4,2.3
			c-0.6,0.9-0.8,2-0.5,3.2c0.4,1.5,1.5,2.6,2.8,3.5c1,0.7,2,1.3,3,1.8c2.8,1.7,5.4,3.5,7.9,5.5c0.4,0.3,0.7,0.6,1.1,0.9
			c0.3,0.3,0.7,0.5,1,0.8c0,0,0,0,0,0c1.6,1.3,3.1,2.6,4.5,4.1c0.1,0.1,0.2,0.2,0.3,0.3c0.3,0.3,0.6,0.6,0.9,0.9
			c0.3,0.3,0.6,0.7,0.9,1c1,1.1,2.1,2.3,2.9,3.6c0.3,0.4,0.5,0.9,0.7,1.3C237.7,169.2,237.9,169.6,238,170.1
			C238,170,238,170,238,170.1z M245.3,155.7c0,0.1,0.1,0.1,0.1,0.2c0,0,0.1,0,0.1,0.1c0.1,0,0.1,0.1,0.2,0.1c0,0,0.1,0,0.1,0
			c0.1,0,0.2,0,0.3,0c0,0,0.1,0,0.1,0c0.1,0,0.3,0,0.4,0c0,0,0,0,0.1,0c0.3-0.1,0.6-0.2,0.8-0.3c0,0,0,0,0,0
			c0.1-0.1,0.2-0.1,0.3-0.2c0,0,0,0,0,0c0,0,0,0,0,0c0.1-0.1,0.1-0.2,0.2-0.3c0.9-1.8,2-3.5,3.3-5.1c0.6-0.8,1.4-1.6,1.9-2.5
			c0.2-0.4,0.4-0.8,0.6-1.2c0-0.1,0-0.1,0-0.2c0.1-0.4,0.1-0.7-0.1-1.1c0,0,0,0,0,0c-0.1-0.2-0.2-0.3-0.3-0.4c0,0-0.1-0.1-0.1-0.1
			c-0.1-0.1-0.3-0.2-0.4-0.3c0,0-0.1,0-0.1,0c-0.1,0-0.1-0.1-0.2-0.1c-0.1,0-0.2-0.1-0.3-0.1c0,0,0,0-0.1,0c-0.2,0-0.4,0-0.6-0.1
			c0,0-0.1,0-0.1,0c-0.2,0-0.3,0-0.5,0c-1.2,0.2-2.1,0.8-3,1.6c-1.3,1.1-2.1,2.6-2.6,4.2c0,0,0,0.1,0,0.1
			C244.8,151.9,244.8,153.8,245.3,155.7C245.2,155.7,245.3,155.7,245.3,155.7C245.3,155.7,245.3,155.7,245.3,155.7z M389.9,93.9
			c0.1,0.1,0.2,0.3,0.3,0.4c2.2,3.7,4.2,7.5,5.9,11.5c1.8,4.3,3.4,8.7,4.5,13.1c0,0,0,0.1,0,0.1c0.3,1.2,0.6,2.3,0.8,3.5
			c0.1,0.4,0.2,0.8,0.2,1.1c0.3,1.3,0.5,2.7,0.7,4.1c0.2,1.4,0.4,2.9,0.5,4.3c0,0,0,0,0,0c0,0.1,0.1,0.2,0.1,0.3c0,0,0.1,0,0.1,0.1
			c0.1,0,0.1,0.1,0.2,0.1c0,0,0.1,0,0.1,0c0.1,0,0.2,0,0.3,0c0,0,0,0,0.1,0c0.1,0,0.3,0,0.4,0c0,0,0.1,0,0.1,0
			c0.1,0,0.3-0.1,0.4-0.1c0,0,0,0,0,0c0.1,0,0.3-0.1,0.4-0.2c0,0,0,0,0,0c0.1-0.1,0.2-0.1,0.3-0.2c0,0,0,0,0,0
			c0.1-0.1,0.1-0.2,0.2-0.2c0.5-1.3,1-2.5,1.7-3.7c0.3-0.5,0.5-1,0.8-1.6c0.8-1.6,1.7-3.3,2.4-5c0.1-0.3,0.3-0.7,0.4-1
			c0.8-2.2,1.3-4.5,1.6-6.8c0.1-0.7,0.2-1.5,0.2-2.2c0.1-1.9,0.1-3.8-0.1-5.6c-0.1-0.8-0.2-1.6-0.3-2.4c-0.1-0.6-0.2-1.2-0.3-1.9
			c0-0.1,0-0.2,0-0.3c-1-4.7-2.8-9.2-4.9-13.5c-0.2-0.4-0.4-0.7-0.6-1.1c-1.9-3.6-4.1-6.9-7-9.7c-4.6-4.5-10.4-7.3-16.7-8.2
			c0,0,0,0,0,0c-0.7-0.1-1.4-0.2-2.1-0.2c-0.2,0-0.3,0-0.5,0c-0.7,0-1.3-0.1-2-0.1c-0.2,0-0.3,0-0.5,0c-0.4,0-0.7,0-1.1,0
			c-0.2,0-0.4,0-0.6,0c-0.4,0-0.7,0-1.1,0.1c-0.2,0-0.4,0-0.6,0c-0.4,0-0.8,0.1-1.2,0.1c-0.1,0-0.3,0-0.4,0c-0.5,0-1.1,0.1-1.6,0.2
			c0,0,0,0,0,0c-0.2,0-0.4,0-0.6,0.1c0,0,0,0,0,0c-0.5,0.1-1.2,0.4-1.2,1c0,0.3,0.1,0.4,0.3,0.6c0,0,0,0,0,0
			C377.7,77.1,384.6,85.1,389.9,93.9z M368.5,111.9c-0.2,0.8,0.3,1.3,1,1.6c1.3,0.6,2.7,1,4,1.6c1.5,0.8,2.9,1.7,4.2,2.8
			c1.2,1,2.3,2.1,3.2,3.4c0.1,0.1,0.2,0.2,0.3,0.2c0,0,0,0,0,0c0.1,0,0.3,0.1,0.5,0.1c0,0,0.1,0,0.1,0c0.1,0,0.1,0,0.2,0
			c0,0,0.1,0,0.1,0c0.1,0,0.1,0,0.2,0c0,0,0.1,0,0.1,0c0.1,0,0.1,0,0.2-0.1c0,0,0,0,0,0c0,0,0,0,0.1,0c0.1,0,0.2-0.1,0.2-0.1
			c0,0,0,0,0,0c0.3-0.2,0.6-0.4,0.6-0.7c0-0.1,0-0.2,0-0.3c0-0.4-0.1-0.7-0.1-1.1c-0.3-3.7-1.6-7.4-4-10.3c-0.9-1.1-1.9-2.1-3-2.9
			c-0.2-0.1-0.3-0.2-0.5-0.3c0,0,0,0,0,0c0,0-0.1,0-0.1-0.1c-0.1-0.1-0.3-0.1-0.4-0.2c-0.1,0-0.1,0-0.2-0.1c-0.1,0-0.3-0.1-0.4-0.1
			c-0.1,0-0.1,0-0.2,0c-0.2,0-0.4,0-0.6,0.1c0,0,0,0,0,0c-0.7,0.2-1.4,0.7-2,1.1c-0.6,0.5-1.2,1.1-1.7,1.7c-0.4,0.5-0.8,1.1-1.2,1.7
			C369,110.7,368.7,111.3,368.5,111.9z M421.1,106.7c0,0,0.1,0,0.1,0c0.1,0,0.2,0,0.3,0c0,0,0.1,0,0.1,0c0,0,0.1,0,0.1,0
			c0.1,0,0.2-0.1,0.2-0.1c0,0,0,0,0,0c0,0,0.1,0,0.1,0c0.1,0,0.1-0.1,0.2-0.1c1.4-0.8,2.7-1.7,4-2.7c1.4-1.1,2.6-2.3,3.8-3.6
			c0.3-0.3,0.5-0.6,0.7-0.9c3.2-4,5.4-8.7,5.8-13.9c0-0.5,0.1-1.1,0.1-1.7c0-0.5,0-1.1-0.1-1.7c0,0,0-0.1,0-0.1
			c0-0.3-0.1-0.5-0.1-0.8c0-0.1,0-0.1,0-0.2c0-0.2-0.1-0.5-0.1-0.7c0-0.1,0-0.1,0-0.2c0-0.2-0.1-0.4-0.1-0.6c0-0.1,0-0.2-0.1-0.2
			c-0.1-0.2-0.1-0.4-0.2-0.6c0-0.1-0.1-0.2-0.1-0.3c-0.1-0.2-0.1-0.3-0.2-0.5c0-0.1-0.1-0.2-0.1-0.3c-0.1-0.2-0.2-0.3-0.3-0.4
			c-0.1-0.1-0.1-0.2-0.2-0.2c-0.1-0.1-0.2-0.3-0.3-0.4c-0.1-0.1-0.1-0.1-0.2-0.2c-0.1-0.1-0.2-0.2-0.4-0.3c-0.1-0.1-0.2-0.1-0.2-0.2
			c-0.1-0.1-0.3-0.2-0.4-0.2c-0.1,0-0.2-0.1-0.3-0.1c-0.1-0.1-0.3-0.1-0.5-0.2c-0.1,0-0.2-0.1-0.3-0.1c-0.2,0-0.4,0-0.5-0.1
			c-0.1,0-0.2,0-0.3,0c-0.3,0-0.6,0-0.9,0.1c0,0,0,0,0,0c-4,0.6-5.1,5-5.7,8.8c-0.2,1.1-0.3,2.3-0.4,3.2c-0.3,2.2-0.7,4.4-1.1,6.5
			c-0.6,2.9-1.4,5.8-2.3,8.6c-0.4,1.2-0.8,2.4-1.2,3.6c-0.2,0.4,0.3,0.6,0.7,0.7C420.8,106.7,420.9,106.7,421.1,106.7z M493.5,101
			c-1.7-2.9-5.3-4.8-8.3-6.1c-0.7-0.3-1.3-0.6-2-0.8c-0.2-0.1-0.4-0.1-0.6-0.2c-0.5-0.2-1-0.3-1.5-0.5c-0.2-0.1-0.4-0.1-0.7-0.2
			c-0.5-0.1-1-0.3-1.5-0.4c-0.2,0-0.4-0.1-0.6-0.1c-0.7-0.1-1.4-0.3-2.1-0.4c0,0,0,0-0.1,0c-0.7-0.1-1.4-0.2-2.1-0.2
			c-0.2,0-0.4,0-0.7,0c-0.5,0-1-0.1-1.5-0.1c-0.2,0-0.5,0-0.7,0c-0.5,0-1,0-1.5,0c-0.2,0-0.5,0-0.7,0c-0.7,0-1.4,0.1-2.1,0.1
			c0,0,0,0,0,0c-4.8,0.4-9.6,1.6-14.1,3.4c-2.7,1.1-5.4,2.5-7.9,4c-2.8,1.7-5.4,3.8-7.8,5.9c-1.7,1.5-3.3,3.1-4.8,4.7
			c-0.5,0.6-1.1,1.2-1.6,1.8c-0.5,0.6-1,1.2-1.5,1.8c-0.2,0.2-0.3,0.4-0.5,0.6c-1.7,2.1-3.3,4.3-4.8,6.6c-0.8,1.2-1.6,2.4-2.3,3.6
			c-0.2,0.4-0.5,0.8-0.7,1.3c-1.3,2.4-2.6,4.8-3.7,7.3c-0.3,0.7-0.6,1.4-0.9,2c-0.1,0.1,0,0.2,0.1,0.3c0,0,0.1,0,0.1,0.1
			c0.1,0,0.2,0.1,0.3,0.1c0,0,0,0,0,0c0.1,0,0.3,0,0.4,0c0.1,0,0.1,0,0.2,0c0.1,0,0.2,0,0.3-0.1c0.1,0,0.1,0,0.2,0
			c0.1,0,0.2-0.1,0.4-0.1c0,0,0.1,0,0.1,0c0.1-0.1,0.3-0.2,0.4-0.2c0,0,0.1-0.1,0.1-0.1c0,0,0,0,0,0c0.6-0.5,1.1-0.9,1.7-1.3
			c1.9-1.5,4-2.8,6.1-4.1c1.4-0.8,2.8-1.7,4.2-2.4c0.2-0.1,0.4-0.2,0.6-0.3c0.5-0.3,1-0.5,1.5-0.8c2.3-1.3,4.7-2.4,7.1-3.6
			c3.4-1.7,6.9-3.2,10.4-4.7c4.2-1.8,8.5-3.3,12.7-5c0.3-0.1,0.6-0.2,0.9-0.3c4.7-1.8,9.5-3.7,14.2-5.6c4.6-1.8,9.3-3.8,14.2-4.9
			C492.5,101.9,493.8,101.4,493.5,101z M424.7,161c-0.1-0.1-0.1-0.2-0.2-0.2c0,0,0,0-0.1,0c-0.1-0.1-0.2-0.1-0.3-0.1c0,0,0,0,0,0
			c-0.1,0-0.2,0-0.3,0c0,0-0.1,0-0.1,0c-0.1,0-0.3,0-0.4,0.1c0,0,0,0,0,0c-0.6,0.1-1.1,0.5-1.1,1c0,2.5,0.2,5.1,0.4,7.6
			c0.2,2.8,0.5,5.6,0.9,8.4c0.5,3.9,1.4,8.5,5.5,10.1c0.2,0.1,0.3,0.1,0.5,0.2c0.3,0.1,0.6,0.2,0.9,0.2c0.1,0,0.2,0,0.2,0
			c0.2,0,0.4,0,0.6,0c0.1,0,0.2,0,0.3,0c0.1,0,0.2,0,0.2,0c0.1,0,0.3,0,0.4,0c0.1,0,0.1,0,0.2,0c0.2,0,0.3-0.1,0.5-0.1
			c0.1,0,0.1,0,0.2,0c0.4-0.1,0.8-0.3,1.2-0.5c0,0,0.1-0.1,0.1-0.1c0.1-0.1,0.3-0.2,0.4-0.3c0,0,0.1-0.1,0.1-0.1
			c0.1-0.1,0.3-0.2,0.4-0.3c0,0,0.1-0.1,0.1-0.1c0.1-0.1,0.3-0.2,0.4-0.4c0,0,0,0,0.1-0.1c0.3-0.3,0.6-0.7,0.8-1.1c0,0,0-0.1,0-0.1
			c0.1-0.2,0.2-0.3,0.2-0.5c0,0,0-0.1,0.1-0.1c0.1-0.2,0.1-0.3,0.2-0.5c0,0,0,0,0,0c0,0,0-0.1,0-0.1c0.1-0.2,0.1-0.4,0.1-0.6
			c0,0,0-0.1,0-0.1c0-0.2,0.1-0.5,0.1-0.7c0.2-4.1-3-7.7-5.3-10.8c-0.4-0.6-0.8-1.1-1.3-1.7C428.6,167.1,426.3,164.2,424.7,161z
			 M454.8,177.1c0.3,0.3,0.6,0.7,0.8,1c1.8,2.3,3.6,4.7,5.3,7.1c1.6,2.3,3.1,4.6,5.3,6.3c0.1,0.1,0.1,0.1,0.2,0.2
			c0.3,0.2,0.5,0.4,0.8,0.6c0.1,0,0.1,0.1,0.2,0.1c0.2,0.1,0.5,0.3,0.7,0.4c0.1,0.1,0.2,0.1,0.3,0.2c0.2,0.1,0.4,0.2,0.6,0.3
			c0.1,0.1,0.2,0.1,0.3,0.1c0.2,0.1,0.4,0.2,0.6,0.3c0.1,0,0.2,0.1,0.3,0.1c0.2,0.1,0.4,0.2,0.7,0.2c0.1,0,0.2,0.1,0.3,0.1
			c0.3,0.1,0.5,0.1,0.8,0.2c0.1,0,0.2,0,0.2,0.1c0.3,0.1,0.7,0.1,1,0.1c0,0,0.1,0,0.1,0c0.3,0,0.5,0,0.8,0c0,0,0.1,0,0.1,0
			c0.2,0,0.5,0,0.7,0c0,0,0.1,0,0.1,0c0.3,0,0.6-0.1,0.9-0.1c0.1,0,0.1,0,0.2,0c0.2,0,0.4-0.1,0.6-0.1c0.1,0,0.2-0.1,0.3-0.1
			c0.2-0.1,0.4-0.1,0.6-0.2c0.1,0,0.2-0.1,0.3-0.1c0.2-0.1,0.4-0.2,0.6-0.3c0.1,0,0.2-0.1,0.3-0.1c0.2-0.1,0.4-0.2,0.6-0.4
			c0.1,0,0.1-0.1,0.2-0.1c0.3-0.2,0.5-0.4,0.7-0.6c0.6-0.5,1-1.1,1.4-1.6c0.2-0.3,0.3-0.6,0.4-0.8c1.4-3.6-0.6-8-2.4-11.3
			c-1-1.9-2.2-3.8-3.4-5.5c-5-7-11.6-12.9-18.9-17.4c-0.2-0.1-0.4-0.2-0.6-0.3c-1.1-0.7-2.2-1.3-3.4-1.9c-5.6-3-11.7-5.3-17.9-7
			c-0.6-0.1-1.1-0.3-1.7-0.4c-3.2-0.8-6.5-1.4-9.7-1.8c-0.8-0.1-1.6-0.2-2.4-0.3c-0.3,0-0.6-0.1-0.9-0.1c-0.2,0-0.4,0-0.5-0.1
			c0,0-0.1,0-0.1,0c0,0,0,0,0,0c-0.1,0-0.1,0-0.2,0c-0.1,0-0.3,0-0.4,0c0,0,0,0-0.1,0c-0.1,0-0.3,0.1-0.4,0.1c0,0,0,0,0,0
			c-0.1,0.1-0.3,0.1-0.4,0.2c0,0,0,0,0,0c-0.1,0.1-0.1,0.1-0.2,0.2c0,0-0.1,0.1-0.1,0.1c-0.1,0.1-0.1,0.2-0.1,0.3
			c0,0.2,0.1,0.4,0.5,0.6c2,0.7,3.9,1.7,5.7,2.8c0.6,0.4,1.3,0.8,1.9,1.2c0.5,0.3,0.9,0.6,1.3,1c1.2,0.9,2.4,1.8,3.6,2.8
			c0.1,0.1,0.2,0.2,0.3,0.3c4.1,3.3,8,7,11.7,10.8C447.5,168.5,451.3,172.7,454.8,177.1z M392.2,206.5c0.3,0,0.6,0,0.9,0
			c0.2,0,0.3,0,0.5,0c0.1,0,0.2,0,0.3,0c0.3,0,0.5-0.1,0.7-0.1c0,0,0,0,0,0c0.3,0,0.5-0.1,0.8-0.2c0,0,0.1,0,0.1,0
			c0.2-0.1,0.4-0.1,0.6-0.2c0.1,0,0.1,0,0.2-0.1c0.2-0.1,0.3-0.1,0.5-0.2c0.1,0,0.1-0.1,0.2-0.1c0.2-0.1,0.3-0.2,0.5-0.2
			c0.1,0,0.1-0.1,0.2-0.1c0.2-0.1,0.3-0.2,0.5-0.3c0.1,0,0.1-0.1,0.2-0.1c0.2-0.1,0.3-0.2,0.5-0.3c0.1,0,0.1-0.1,0.2-0.1
			c0.2-0.1,0.3-0.2,0.5-0.3c0.1,0,0.1-0.1,0.2-0.1c0.2-0.1,0.3-0.3,0.5-0.4c0,0,0.1-0.1,0.1-0.1c0.2-0.1,0.3-0.3,0.5-0.4
			c0,0,0.1-0.1,0.1-0.1c0.2-0.2,0.3-0.3,0.5-0.5c0,0,0,0,0,0c0.6-0.6,1.1-1.2,1.6-1.8c2.2-2.8,4.1-6,5.6-9.2
			c2.3-5,3.7-10.3,4.1-15.7c0.4-4.6,0-9.2-1.1-13.7c-0.9-3.7-2.2-7.3-3.9-10.7c0,0,0-0.1-0.1-0.1c0-0.1-0.1-0.2-0.1-0.3
			c-0.1-0.2-0.2-0.4-0.3-0.6c-0.8-1.4-1.6-2.8-2.5-4.2c-0.1-0.1-0.2-0.3-0.3-0.3c-0.1,0-0.2-0.1-0.3-0.1c0,0-0.1,0-0.1,0
			c-0.1,0-0.2,0-0.4,0c0,0,0,0,0,0c-0.6,0.1-1.2,0.4-1.5,0.8c-0.1,0.2-0.1,0.3-0.1,0.5c0.3,1.2,0.4,2.4,0.5,3.6c0,0.9,0,1.7-0.1,2.6
			c-0.1,0.8-0.2,1.5-0.3,2.3c-0.2,1-0.3,2-0.5,3c-0.8,4.3-2,8.5-3.3,12.6c-1.6,4.8-3.4,9.6-5.5,14.2c-1,2.2-2.1,4.5-3.3,6.6
			c-1.1,2-2.2,4.1-2.7,6.3C386,202.2,388,206.1,392.2,206.5z M438.4,136.7C438.4,136.7,438.4,136.7,438.4,136.7
			c0.1,0.3,0.4,0.4,0.8,0.4c0,0,0,0,0.1,0c0,0,0,0,0,0c0,0,0,0,0,0c0,0,0,0,0,0c0,0,0,0,0,0c0.1,0,0.2,0,0.3,0c0.1,0,0.2,0,0.3-0.1
			c0,0,0,0,0.1,0c0.7-0.2,1.3-0.3,2-0.4c2.7-0.5,5.4-0.9,8.1-1c0.9,0,2,0,3.1-0.1c0.7,0,1.3-0.1,2-0.3c0.5-0.1,0.9-0.2,1.4-0.4
			c0.4-0.2,0.7-0.4,1-0.6c0.3-0.3,0.6-0.6,0.9-1c0.7-1.1,0.2-2.4-0.7-3.2c-1.1-0.9-2.5-1.2-3.9-1.3c0,0,0,0,0,0
			c-0.5-0.1-0.9-0.1-1.4-0.1c-0.1,0-0.2,0-0.3,0c-0.5,0-1,0-1.5,0.1c0,0-0.1,0-0.1,0c-0.5,0.1-1,0.1-1.4,0.2c-0.1,0-0.2,0-0.2,0.1
			c-0.4,0.1-0.8,0.2-1.2,0.3c-0.1,0-0.2,0.1-0.3,0.1c-0.1,0-0.2,0.1-0.3,0.1c-0.5,0.2-1,0.4-1.5,0.6c-0.2,0.1-0.4,0.2-0.6,0.3
			c-1.9,1-3.7,2.3-5.1,3.9c-0.4,0.5-0.8,1-1.2,1.5c-0.1,0.1-0.2,0.2-0.2,0.3C438.3,136.4,438.3,136.5,438.4,136.7
			C438.3,136.6,438.3,136.6,438.4,136.7C438.3,136.6,438.4,136.7,438.4,136.7z M343.2,149.3c0.1,0.1,0.3,0.1,0.5,0.1
			c0.1,0,0.3,0,0.4,0c0,0,0.1,0,0.1,0c0.1,0,0.2-0.1,0.3-0.1c0,0,0.1,0,0.1,0c0.1-0.1,0.2-0.1,0.3-0.2c0.2-0.2,0.4-0.3,0.7-0.4
			c0.4-0.3,0.9-0.6,1.3-0.9c0.3-0.2,0.6-0.4,0.9-0.6c0.4-0.2,0.8-0.5,1.1-0.7c0.3-0.2,0.7-0.4,1-0.6c0.4-0.2,0.7-0.4,1.1-0.6
			c0.3-0.2,0.7-0.3,1-0.5c0.4-0.2,0.8-0.4,1.1-0.6c0.4-0.2,0.7-0.3,1.1-0.5c0.4-0.2,0.8-0.3,1.2-0.5c0.4-0.2,0.7-0.3,1.1-0.4
			c0.4-0.2,0.8-0.3,1.2-0.5c0.4-0.1,0.7-0.3,1.1-0.4c0.4-0.1,0.8-0.3,1.2-0.4c0.4-0.1,0.7-0.2,1.1-0.4c0.4-0.1,0.8-0.3,1.3-0.4
			c0.4-0.1,0.7-0.2,1.1-0.3c0.4-0.1,0.9-0.2,1.3-0.3c0.3-0.1,0.7-0.2,1-0.2c0.5-0.1,1-0.2,1.6-0.3c0.3-0.1,0.5-0.1,0.8-0.2
			c0.8-0.1,1.6-0.3,2.4-0.4c0.2,0,0.5-0.1,0.7-0.1c0.6-0.1,1.1-0.2,1.7-0.2c0.3,0,0.6-0.1,0.9-0.1c0.4,0,0.8-0.1,1.3-0.1
			c0.1,0,0.1,0,0.2,0c0.3,0,0.7,0,1-0.1c0.5,0,0.9,0,1.4-0.1c0.3,0,0.7,0,1,0c0.4,0,0.8,0,1.2,0c1,0,2.1,0,3.1,0.1c0,0,0,0,0,0
			c0.9,0.1,1.8,0.1,2.7,0.2c0.1,0,0.2,0,0.3,0c0.5,0.1,0.9,0.1,1.4,0.2c1.6,0.2,3.3,0.5,4.9,0.9c0.1,0,0.2,0,0.2,0c0,0,0,0,0.1,0
			c0,0,0,0,0.1,0c0,0,0.1,0,0.1,0c0,0,0,0,0.1,0c0.1,0,0.1,0,0.2,0c0,0,0,0,0.1,0c0.1,0,0.1,0,0.2,0c0,0,0,0,0,0
			c0.3-0.1,0.6-0.2,0.8-0.4c0,0,0,0,0,0c0.1,0,0.1-0.1,0.1-0.1c0,0,0,0,0,0c0,0,0.1-0.1,0.1-0.1c0,0,0,0,0,0c0,0,0-0.1,0.1-0.1
			c0,0,0,0,0,0c0,0,0-0.1,0-0.1c0,0,0,0,0,0c0,0,0-0.1,0-0.1c0,0,0,0,0,0c0-0.1-0.1-0.2-0.3-0.3c-0.6-0.5-1.1-1-1.7-1.6
			c-1-1-2-2.1-3-3.1c-0.6-0.6-1.2-1.2-1.8-1.7c-0.8-0.6-1.6-1.2-2.4-1.7c-0.3-0.2-0.6-0.3-0.9-0.5c-3-1.6-6.2-2.6-9.7-3
			c-0.4,0-0.9-0.1-1.3-0.1c-0.4,0-0.7-0.1-1.1-0.1c-0.2,0-0.5,0-0.7,0c-0.6,0-1.3,0-1.9,0c-0.1,0-0.2,0-0.4,0
			c-0.8,0-1.5,0.1-2.2,0.1c-0.2,0-0.3,0-0.5,0.1c-0.7,0.1-1.5,0.2-2.2,0.3c0,0,0,0,0,0c-1.9,0.3-3.8,0.7-5.6,1.3
			c-1.3,0.4-2.5,0.9-3.7,1.5c-4.4,2.3-7.8,5.8-9.9,10.3c-1.3,2.8-2,5.7-2.6,8.7C342.6,149,342.9,149.2,343.2,149.3z"/>
	</defs>
	<clipPath id="SVGID_00000034079098257563726050000003638300556525003950_">
		<use xlink:href="#SVGID_1_"  style="overflow:visible;"/>
	</clipPath>
	
		<linearGradient id="SVGID_00000172414449936911191780000012939118593134123694_" gradientUnits="userSpaceOnUse" x1="-152.5296" y1="513.3598" x2="517.4705" y2="513.3598" gradientTransform="matrix(-1.633974e-07 1 -1 -1.633974e-07 858.8599 136.5296)">
		<stop  offset="0.1453" style="stop-color:#FF7200"/>
		<stop  offset="0.3331" style="stop-color:#FFD800"/>
		<stop  offset="0.4891" style="stop-color:#88FF00"/>
		<stop  offset="0.6335" style="stop-color:#4ABAFF"/>
		<stop  offset="0.8278" style="stop-color:#9500FF"/>
	</linearGradient>
	
		<polygon style="clip-path:url(#SVGID_00000034079098257563726050000003638300556525003950_);fill:url(#SVGID_00000172414449936911191780000012939118593134123694_);" points="
		0,654 0,-16 691,-16 691,654 	"/>
</g>
</svg>
